<svg xmlns="http://www.w3.org/2000/svg" xmlns:xlink="http://www.w3.org/1999/xlink" width="720" zoomAndPan="magnify" viewBox="0 0 540 738.749995" height="985" preserveAspectRatio="xMidYMid meet" version="1.0"><defs><clipPath id="54e5b322e3"><path d="M 0.0898438 198.550781 L 539.90625 198.550781 L 539.90625 738.371094 L 0.0898438 738.371094 Z M 0.0898438 198.550781 " clip-rule="nonzero"/></clipPath><clipPath id="904f0eb6be"><path d="M 270 198.550781 C 120.933594 198.550781 0.0898438 319.394531 0.0898438 468.460938 C 0.0898438 617.527344 120.933594 738.371094 270 738.371094 C 419.066406 738.371094 539.910156 617.527344 539.910156 468.460938 C 539.910156 319.394531 419.066406 198.550781 270 198.550781 Z M 270 198.550781 " clip-rule="nonzero"/></clipPath><linearGradient x1="0.000000787954" gradientTransform="matrix(2.108661, 0, 0, 2.108661, 0.0913415, 198.552517)" y1="0.000000787954" x2="255.999985" gradientUnits="userSpaceOnUse" y2="255.999985" id="8c85abf9be"><stop stop-opacity="1" stop-color="rgb(0%, 0%, 0%)" offset="0"/><stop stop-opacity="1" stop-color="rgb(0.0259399%, 0.0259399%, 0.370789%)" offset="0.00390625"/><stop stop-opacity="1" stop-color="rgb(0.0534058%, 0.0534058%, 0.741577%)" offset="0.0078125"/><stop stop-opacity="1" stop-color="rgb(0.0808716%, 0.0808716%, 1.112366%)" offset="0.0117188"/><stop stop-opacity="1" stop-color="rgb(0.108337%, 0.108337%, 1.483154%)" offset="0.015625"/><stop stop-opacity="1" stop-color="rgb(0.135803%, 0.135803%, 1.853943%)" offset="0.0195313"/><stop stop-opacity="1" stop-color="rgb(0.163269%, 0.163269%, 2.226257%)" offset="0.0234375"/><stop stop-opacity="1" stop-color="rgb(0.190735%, 0.190735%, 2.597046%)" offset="0.0273438"/><stop stop-opacity="1" stop-color="rgb(0.218201%, 0.218201%, 2.967834%)" offset="0.03125"/><stop stop-opacity="1" stop-color="rgb(0.245667%, 0.245667%, 3.338623%)" offset="0.0351562"/><stop stop-opacity="1" stop-color="rgb(0.273132%, 0.273132%, 3.710938%)" offset="0.0390625"/><stop stop-opacity="1" stop-color="rgb(0.300598%, 0.300598%, 4.081726%)" offset="0.0429688"/><stop stop-opacity="1" stop-color="rgb(0.328064%, 0.328064%, 4.452515%)" offset="0.046875"/><stop stop-opacity="1" stop-color="rgb(0.354004%, 0.354004%, 4.823303%)" offset="0.0507812"/><stop stop-opacity="1" stop-color="rgb(0.38147%, 0.38147%, 5.194092%)" offset="0.0546875"/><stop stop-opacity="1" stop-color="rgb(0.408936%, 0.408936%, 5.56488%)" offset="0.0585938"/><stop stop-opacity="1" stop-color="rgb(0.436401%, 0.436401%, 5.937195%)" offset="0.0625"/><stop stop-opacity="1" stop-color="rgb(0.463867%, 0.463867%, 6.307983%)" offset="0.0664062"/><stop stop-opacity="1" stop-color="rgb(0.491333%, 0.491333%, 6.678772%)" offset="0.0703125"/><stop stop-opacity="1" stop-color="rgb(0.518799%, 0.518799%, 7.049561%)" offset="0.0742187"/><stop stop-opacity="1" stop-color="rgb(0.546265%, 0.546265%, 7.420349%)" offset="0.078125"/><stop stop-opacity="1" stop-color="rgb(0.57373%, 0.57373%, 7.791138%)" offset="0.0820312"/><stop stop-opacity="1" stop-color="rgb(0.601196%, 0.601196%, 8.163452%)" offset="0.0859375"/><stop stop-opacity="1" stop-color="rgb(0.628662%, 0.628662%, 8.534241%)" offset="0.0898437"/><stop stop-opacity="1" stop-color="rgb(0.656128%, 0.656128%, 8.905029%)" offset="0.09375"/><stop stop-opacity="1" stop-color="rgb(0.682068%, 0.682068%, 9.275818%)" offset="0.0976562"/><stop stop-opacity="1" stop-color="rgb(0.709534%, 0.709534%, 9.648132%)" offset="0.101562"/><stop stop-opacity="1" stop-color="rgb(0.737%, 0.737%, 10.018921%)" offset="0.105469"/><stop stop-opacity="1" stop-color="rgb(0.764465%, 0.764465%, 10.389709%)" offset="0.109375"/><stop stop-opacity="1" stop-color="rgb(0.791931%, 0.791931%, 10.760498%)" offset="0.113281"/><stop stop-opacity="1" stop-color="rgb(0.819397%, 0.819397%, 11.131287%)" offset="0.117187"/><stop stop-opacity="1" stop-color="rgb(0.846863%, 0.846863%, 11.502075%)" offset="0.121094"/><stop stop-opacity="1" stop-color="rgb(0.874329%, 0.874329%, 11.87439%)" offset="0.125"/><stop stop-opacity="1" stop-color="rgb(0.901794%, 0.901794%, 12.245178%)" offset="0.128906"/><stop stop-opacity="1" stop-color="rgb(0.92926%, 0.92926%, 12.615967%)" offset="0.132813"/><stop stop-opacity="1" stop-color="rgb(0.956726%, 0.956726%, 12.986755%)" offset="0.136719"/><stop stop-opacity="1" stop-color="rgb(0.984192%, 0.984192%, 13.35907%)" offset="0.140625"/><stop stop-opacity="1" stop-color="rgb(1.010132%, 1.010132%, 13.729858%)" offset="0.144531"/><stop stop-opacity="1" stop-color="rgb(1.037598%, 1.037598%, 14.100647%)" offset="0.148438"/><stop stop-opacity="1" stop-color="rgb(1.065063%, 1.065063%, 14.471436%)" offset="0.152344"/><stop stop-opacity="1" stop-color="rgb(1.092529%, 1.092529%, 14.842224%)" offset="0.15625"/><stop stop-opacity="1" stop-color="rgb(1.119995%, 1.119995%, 15.213013%)" offset="0.160156"/><stop stop-opacity="1" stop-color="rgb(1.147461%, 1.147461%, 15.585327%)" offset="0.164063"/><stop stop-opacity="1" stop-color="rgb(1.174927%, 1.174927%, 15.956116%)" offset="0.167969"/><stop stop-opacity="1" stop-color="rgb(1.202393%, 1.202393%, 16.326904%)" offset="0.171875"/><stop stop-opacity="1" stop-color="rgb(1.229858%, 1.229858%, 16.697693%)" offset="0.175781"/><stop stop-opacity="1" stop-color="rgb(1.257324%, 1.257324%, 17.070007%)" offset="0.179688"/><stop stop-opacity="1" stop-color="rgb(1.28479%, 1.28479%, 17.440796%)" offset="0.183594"/><stop stop-opacity="1" stop-color="rgb(1.312256%, 1.312256%, 17.811584%)" offset="0.1875"/><stop stop-opacity="1" stop-color="rgb(1.338196%, 1.338196%, 18.182373%)" offset="0.191406"/><stop stop-opacity="1" stop-color="rgb(1.365662%, 1.365662%, 18.553162%)" offset="0.195313"/><stop stop-opacity="1" stop-color="rgb(1.393127%, 1.393127%, 18.92395%)" offset="0.199219"/><stop stop-opacity="1" stop-color="rgb(1.420593%, 1.420593%, 19.296265%)" offset="0.203125"/><stop stop-opacity="1" stop-color="rgb(1.448059%, 1.448059%, 19.667053%)" offset="0.207031"/><stop stop-opacity="1" stop-color="rgb(1.475525%, 1.475525%, 20.037842%)" offset="0.210938"/><stop stop-opacity="1" stop-color="rgb(1.502991%, 1.502991%, 20.40863%)" offset="0.214844"/><stop stop-opacity="1" stop-color="rgb(1.530457%, 1.530457%, 20.780945%)" offset="0.21875"/><stop stop-opacity="1" stop-color="rgb(1.557922%, 1.557922%, 21.151733%)" offset="0.222656"/><stop stop-opacity="1" stop-color="rgb(1.585388%, 1.585388%, 21.522522%)" offset="0.226563"/><stop stop-opacity="1" stop-color="rgb(1.612854%, 1.612854%, 21.893311%)" offset="0.230469"/><stop stop-opacity="1" stop-color="rgb(1.64032%, 1.64032%, 22.264099%)" offset="0.234375"/><stop stop-opacity="1" stop-color="rgb(1.667786%, 1.667786%, 22.634888%)" offset="0.238281"/><stop stop-opacity="1" stop-color="rgb(1.695251%, 1.695251%, 23.007202%)" offset="0.242188"/><stop stop-opacity="1" stop-color="rgb(1.721191%, 1.721191%, 23.377991%)" offset="0.246094"/><stop stop-opacity="1" stop-color="rgb(1.748657%, 1.748657%, 23.748779%)" offset="0.25"/><stop stop-opacity="1" stop-color="rgb(1.776123%, 1.776123%, 24.119568%)" offset="0.253906"/><stop stop-opacity="1" stop-color="rgb(1.803589%, 1.803589%, 24.491882%)" offset="0.257813"/><stop stop-opacity="1" stop-color="rgb(1.831055%, 1.831055%, 24.862671%)" offset="0.261719"/><stop stop-opacity="1" stop-color="rgb(1.858521%, 1.858521%, 25.233459%)" offset="0.265625"/><stop stop-opacity="1" stop-color="rgb(1.885986%, 1.885986%, 25.604248%)" offset="0.269531"/><stop stop-opacity="1" stop-color="rgb(1.913452%, 1.913452%, 25.975037%)" offset="0.273438"/><stop stop-opacity="1" stop-color="rgb(1.940918%, 1.940918%, 26.345825%)" offset="0.277344"/><stop stop-opacity="1" stop-color="rgb(1.968384%, 1.968384%, 26.71814%)" offset="0.28125"/><stop stop-opacity="1" stop-color="rgb(1.99585%, 1.99585%, 27.088928%)" offset="0.285156"/><stop stop-opacity="1" stop-color="rgb(2.023315%, 2.023315%, 27.459717%)" offset="0.289062"/><stop stop-opacity="1" stop-color="rgb(2.049255%, 2.049255%, 27.830505%)" offset="0.292969"/><stop stop-opacity="1" stop-color="rgb(2.076721%, 2.076721%, 28.20282%)" offset="0.296875"/><stop stop-opacity="1" stop-color="rgb(2.104187%, 2.104187%, 28.573608%)" offset="0.300781"/><stop stop-opacity="1" stop-color="rgb(2.131653%, 2.131653%, 28.944397%)" offset="0.304688"/><stop stop-opacity="1" stop-color="rgb(2.159119%, 2.159119%, 29.315186%)" offset="0.308594"/><stop stop-opacity="1" stop-color="rgb(2.186584%, 2.186584%, 29.685974%)" offset="0.3125"/><stop stop-opacity="1" stop-color="rgb(2.21405%, 2.21405%, 30.056763%)" offset="0.316406"/><stop stop-opacity="1" stop-color="rgb(2.241516%, 2.241516%, 30.429077%)" offset="0.320312"/><stop stop-opacity="1" stop-color="rgb(2.268982%, 2.268982%, 30.799866%)" offset="0.324219"/><stop stop-opacity="1" stop-color="rgb(2.296448%, 2.296448%, 31.170654%)" offset="0.328125"/><stop stop-opacity="1" stop-color="rgb(2.323914%, 2.323914%, 31.541443%)" offset="0.332031"/><stop stop-opacity="1" stop-color="rgb(2.351379%, 2.351379%, 31.913757%)" offset="0.335938"/><stop stop-opacity="1" stop-color="rgb(2.377319%, 2.377319%, 32.284546%)" offset="0.339844"/><stop stop-opacity="1" stop-color="rgb(2.404785%, 2.404785%, 32.655334%)" offset="0.34375"/><stop stop-opacity="1" stop-color="rgb(2.432251%, 2.432251%, 33.026123%)" offset="0.347656"/><stop stop-opacity="1" stop-color="rgb(2.459717%, 2.459717%, 33.396912%)" offset="0.351563"/><stop stop-opacity="1" stop-color="rgb(2.487183%, 2.487183%, 33.7677%)" offset="0.355469"/><stop stop-opacity="1" stop-color="rgb(2.514648%, 2.514648%, 34.140015%)" offset="0.359375"/><stop stop-opacity="1" stop-color="rgb(2.542114%, 2.542114%, 34.510803%)" offset="0.363281"/><stop stop-opacity="1" stop-color="rgb(2.56958%, 2.56958%, 34.881592%)" offset="0.367188"/><stop stop-opacity="1" stop-color="rgb(2.597046%, 2.597046%, 35.25238%)" offset="0.371094"/><stop stop-opacity="1" stop-color="rgb(2.624512%, 2.624512%, 35.624695%)" offset="0.375"/><stop stop-opacity="1" stop-color="rgb(2.651978%, 2.651978%, 35.995483%)" offset="0.378906"/><stop stop-opacity="1" stop-color="rgb(2.679443%, 2.679443%, 36.366272%)" offset="0.382813"/><stop stop-opacity="1" stop-color="rgb(2.705383%, 2.705383%, 36.737061%)" offset="0.386719"/><stop stop-opacity="1" stop-color="rgb(2.732849%, 2.732849%, 37.107849%)" offset="0.390625"/><stop stop-opacity="1" stop-color="rgb(2.760315%, 2.760315%, 37.478638%)" offset="0.394531"/><stop stop-opacity="1" stop-color="rgb(2.787781%, 2.787781%, 37.850952%)" offset="0.398438"/><stop stop-opacity="1" stop-color="rgb(2.815247%, 2.815247%, 38.221741%)" offset="0.402344"/><stop stop-opacity="1" stop-color="rgb(2.842712%, 2.842712%, 38.592529%)" offset="0.40625"/><stop stop-opacity="1" stop-color="rgb(2.870178%, 2.870178%, 38.963318%)" offset="0.410156"/><stop stop-opacity="1" stop-color="rgb(2.897644%, 2.897644%, 39.335632%)" offset="0.414062"/><stop stop-opacity="1" stop-color="rgb(2.92511%, 2.92511%, 39.706421%)" offset="0.417969"/><stop stop-opacity="1" stop-color="rgb(2.952576%, 2.952576%, 40.077209%)" offset="0.421875"/><stop stop-opacity="1" stop-color="rgb(2.980042%, 2.980042%, 40.447998%)" offset="0.425781"/><stop stop-opacity="1" stop-color="rgb(3.007507%, 3.007507%, 40.818787%)" offset="0.429688"/><stop stop-opacity="1" stop-color="rgb(3.034973%, 3.034973%, 41.189575%)" offset="0.433594"/><stop stop-opacity="1" stop-color="rgb(3.062439%, 3.062439%, 41.56189%)" offset="0.4375"/><stop stop-opacity="1" stop-color="rgb(3.088379%, 3.088379%, 41.932678%)" offset="0.441406"/><stop stop-opacity="1" stop-color="rgb(3.115845%, 3.115845%, 42.303467%)" offset="0.445313"/><stop stop-opacity="1" stop-color="rgb(3.143311%, 3.143311%, 42.674255%)" offset="0.449219"/><stop stop-opacity="1" stop-color="rgb(3.170776%, 3.170776%, 43.04657%)" offset="0.453125"/><stop stop-opacity="1" stop-color="rgb(3.198242%, 3.198242%, 43.417358%)" offset="0.457031"/><stop stop-opacity="1" stop-color="rgb(3.225708%, 3.225708%, 43.788147%)" offset="0.460938"/><stop stop-opacity="1" stop-color="rgb(3.253174%, 3.253174%, 44.158936%)" offset="0.464844"/><stop stop-opacity="1" stop-color="rgb(3.28064%, 3.28064%, 44.529724%)" offset="0.46875"/><stop stop-opacity="1" stop-color="rgb(3.308105%, 3.308105%, 44.900513%)" offset="0.472656"/><stop stop-opacity="1" stop-color="rgb(3.335571%, 3.335571%, 45.272827%)" offset="0.476563"/><stop stop-opacity="1" stop-color="rgb(3.363037%, 3.363037%, 45.643616%)" offset="0.480469"/><stop stop-opacity="1" stop-color="rgb(3.390503%, 3.390503%, 46.014404%)" offset="0.484375"/><stop stop-opacity="1" stop-color="rgb(3.416443%, 3.416443%, 46.385193%)" offset="0.488281"/><stop stop-opacity="1" stop-color="rgb(3.443909%, 3.443909%, 46.757507%)" offset="0.492188"/><stop stop-opacity="1" stop-color="rgb(3.471375%, 3.471375%, 47.128296%)" offset="0.496094"/><stop stop-opacity="1" stop-color="rgb(3.49884%, 3.49884%, 47.499084%)" offset="0.5"/><stop stop-opacity="1" stop-color="rgb(3.471375%, 4.119873%, 47.909546%)" offset="0.503906"/><stop stop-opacity="1" stop-color="rgb(3.443909%, 4.742432%, 48.320007%)" offset="0.507812"/><stop stop-opacity="1" stop-color="rgb(3.416443%, 5.363464%, 48.728943%)" offset="0.511719"/><stop stop-opacity="1" stop-color="rgb(3.390503%, 5.986023%, 49.139404%)" offset="0.515625"/><stop stop-opacity="1" stop-color="rgb(3.363037%, 6.608582%, 49.549866%)" offset="0.519531"/><stop stop-opacity="1" stop-color="rgb(3.335571%, 7.23114%, 49.960327%)" offset="0.523438"/><stop stop-opacity="1" stop-color="rgb(3.308105%, 7.852173%, 50.369263%)" offset="0.527344"/><stop stop-opacity="1" stop-color="rgb(3.28064%, 8.474731%, 50.779724%)" offset="0.53125"/><stop stop-opacity="1" stop-color="rgb(3.253174%, 9.095764%, 51.190186%)" offset="0.535156"/><stop stop-opacity="1" stop-color="rgb(3.225708%, 9.718323%, 51.600647%)" offset="0.539062"/><stop stop-opacity="1" stop-color="rgb(3.198242%, 10.339355%, 52.011108%)" offset="0.542969"/><stop stop-opacity="1" stop-color="rgb(3.170776%, 10.961914%, 52.42157%)" offset="0.546875"/><stop stop-opacity="1" stop-color="rgb(3.143311%, 11.582947%, 52.830505%)" offset="0.550781"/><stop stop-opacity="1" stop-color="rgb(3.115845%, 12.205505%, 53.240967%)" offset="0.554687"/><stop stop-opacity="1" stop-color="rgb(3.088379%, 12.826538%, 53.651428%)" offset="0.558594"/><stop stop-opacity="1" stop-color="rgb(3.062439%, 13.449097%, 54.06189%)" offset="0.5625"/><stop stop-opacity="1" stop-color="rgb(3.034973%, 14.070129%, 54.470825%)" offset="0.566406"/><stop stop-opacity="1" stop-color="rgb(3.007507%, 14.692688%, 54.881287%)" offset="0.570313"/><stop stop-opacity="1" stop-color="rgb(2.980042%, 15.313721%, 55.291748%)" offset="0.574219"/><stop stop-opacity="1" stop-color="rgb(2.952576%, 15.936279%, 55.702209%)" offset="0.578125"/><stop stop-opacity="1" stop-color="rgb(2.92511%, 16.557312%, 56.112671%)" offset="0.582031"/><stop stop-opacity="1" stop-color="rgb(2.897644%, 17.179871%, 56.523132%)" offset="0.585938"/><stop stop-opacity="1" stop-color="rgb(2.870178%, 17.802429%, 56.932068%)" offset="0.589844"/><stop stop-opacity="1" stop-color="rgb(2.842712%, 18.424988%, 57.342529%)" offset="0.59375"/><stop stop-opacity="1" stop-color="rgb(2.815247%, 19.046021%, 57.752991%)" offset="0.597656"/><stop stop-opacity="1" stop-color="rgb(2.787781%, 19.668579%, 58.163452%)" offset="0.601562"/><stop stop-opacity="1" stop-color="rgb(2.760315%, 20.289612%, 58.572388%)" offset="0.605469"/><stop stop-opacity="1" stop-color="rgb(2.734375%, 20.91217%, 58.982849%)" offset="0.609375"/><stop stop-opacity="1" stop-color="rgb(2.706909%, 21.533203%, 59.393311%)" offset="0.613281"/><stop stop-opacity="1" stop-color="rgb(2.679443%, 22.155762%, 59.803772%)" offset="0.617188"/><stop stop-opacity="1" stop-color="rgb(2.651978%, 22.776794%, 60.214233%)" offset="0.621094"/><stop stop-opacity="1" stop-color="rgb(2.624512%, 23.399353%, 60.624695%)" offset="0.625"/><stop stop-opacity="1" stop-color="rgb(2.597046%, 24.020386%, 61.03363%)" offset="0.628906"/><stop stop-opacity="1" stop-color="rgb(2.56958%, 24.642944%, 61.444092%)" offset="0.632812"/><stop stop-opacity="1" stop-color="rgb(2.542114%, 25.263977%, 61.854553%)" offset="0.636719"/><stop stop-opacity="1" stop-color="rgb(2.514648%, 25.886536%, 62.265015%)" offset="0.640625"/><stop stop-opacity="1" stop-color="rgb(2.487183%, 26.507568%, 62.67395%)" offset="0.644531"/><stop stop-opacity="1" stop-color="rgb(2.459717%, 27.130127%, 63.084412%)" offset="0.648437"/><stop stop-opacity="1" stop-color="rgb(2.432251%, 27.75116%, 63.494873%)" offset="0.652344"/><stop stop-opacity="1" stop-color="rgb(2.404785%, 28.373718%, 63.905334%)" offset="0.65625"/><stop stop-opacity="1" stop-color="rgb(2.377319%, 28.994751%, 64.315796%)" offset="0.660156"/><stop stop-opacity="1" stop-color="rgb(2.351379%, 29.61731%, 64.726257%)" offset="0.664063"/><stop stop-opacity="1" stop-color="rgb(2.323914%, 30.239868%, 65.135193%)" offset="0.667969"/><stop stop-opacity="1" stop-color="rgb(2.296448%, 30.862427%, 65.545654%)" offset="0.671875"/><stop stop-opacity="1" stop-color="rgb(2.268982%, 31.483459%, 65.956116%)" offset="0.675781"/><stop stop-opacity="1" stop-color="rgb(2.241516%, 32.106018%, 66.366577%)" offset="0.679688"/><stop stop-opacity="1" stop-color="rgb(2.21405%, 32.727051%, 66.775513%)" offset="0.683594"/><stop stop-opacity="1" stop-color="rgb(2.186584%, 33.349609%, 67.185974%)" offset="0.6875"/><stop stop-opacity="1" stop-color="rgb(2.159119%, 33.970642%, 67.596436%)" offset="0.691406"/><stop stop-opacity="1" stop-color="rgb(2.131653%, 34.593201%, 68.006897%)" offset="0.695312"/><stop stop-opacity="1" stop-color="rgb(2.104187%, 35.214233%, 68.417358%)" offset="0.699219"/><stop stop-opacity="1" stop-color="rgb(2.076721%, 35.836792%, 68.82782%)" offset="0.703125"/><stop stop-opacity="1" stop-color="rgb(2.049255%, 36.457825%, 69.236755%)" offset="0.707031"/><stop stop-opacity="1" stop-color="rgb(2.023315%, 37.080383%, 69.647217%)" offset="0.710938"/><stop stop-opacity="1" stop-color="rgb(1.99585%, 37.701416%, 70.057678%)" offset="0.714844"/><stop stop-opacity="1" stop-color="rgb(1.968384%, 38.323975%, 70.46814%)" offset="0.71875"/><stop stop-opacity="1" stop-color="rgb(1.940918%, 38.945007%, 70.877075%)" offset="0.722656"/><stop stop-opacity="1" stop-color="rgb(1.913452%, 39.567566%, 71.287537%)" offset="0.726562"/><stop stop-opacity="1" stop-color="rgb(1.885986%, 40.188599%, 71.697998%)" offset="0.730469"/><stop stop-opacity="1" stop-color="rgb(1.858521%, 40.811157%, 72.108459%)" offset="0.734375"/><stop stop-opacity="1" stop-color="rgb(1.831055%, 41.43219%, 72.518921%)" offset="0.738281"/><stop stop-opacity="1" stop-color="rgb(1.803589%, 42.054749%, 72.929382%)" offset="0.742187"/><stop stop-opacity="1" stop-color="rgb(1.776123%, 42.677307%, 73.338318%)" offset="0.746094"/><stop stop-opacity="1" stop-color="rgb(1.748657%, 43.299866%, 73.748779%)" offset="0.75"/><stop stop-opacity="1" stop-color="rgb(1.721191%, 43.920898%, 74.159241%)" offset="0.753906"/><stop stop-opacity="1" stop-color="rgb(1.695251%, 44.543457%, 74.569702%)" offset="0.757813"/><stop stop-opacity="1" stop-color="rgb(1.667786%, 45.16449%, 74.978638%)" offset="0.761719"/><stop stop-opacity="1" stop-color="rgb(1.64032%, 45.787048%, 75.389099%)" offset="0.765625"/><stop stop-opacity="1" stop-color="rgb(1.612854%, 46.408081%, 75.799561%)" offset="0.769531"/><stop stop-opacity="1" stop-color="rgb(1.585388%, 47.03064%, 76.210022%)" offset="0.773438"/><stop stop-opacity="1" stop-color="rgb(1.557922%, 47.651672%, 76.620483%)" offset="0.777344"/><stop stop-opacity="1" stop-color="rgb(1.530457%, 48.274231%, 77.030945%)" offset="0.78125"/><stop stop-opacity="1" stop-color="rgb(1.502991%, 48.895264%, 77.43988%)" offset="0.785156"/><stop stop-opacity="1" stop-color="rgb(1.475525%, 49.517822%, 77.850342%)" offset="0.789062"/><stop stop-opacity="1" stop-color="rgb(1.448059%, 50.138855%, 78.260803%)" offset="0.792969"/><stop stop-opacity="1" stop-color="rgb(1.420593%, 50.761414%, 78.671265%)" offset="0.796875"/><stop stop-opacity="1" stop-color="rgb(1.393127%, 51.382446%, 79.0802%)" offset="0.800781"/><stop stop-opacity="1" stop-color="rgb(1.367188%, 52.005005%, 79.490662%)" offset="0.804687"/><stop stop-opacity="1" stop-color="rgb(1.339722%, 52.626038%, 79.901123%)" offset="0.808594"/><stop stop-opacity="1" stop-color="rgb(1.312256%, 53.248596%, 80.311584%)" offset="0.8125"/><stop stop-opacity="1" stop-color="rgb(1.28479%, 53.871155%, 80.722046%)" offset="0.816406"/><stop stop-opacity="1" stop-color="rgb(1.257324%, 54.493713%, 81.132507%)" offset="0.820312"/><stop stop-opacity="1" stop-color="rgb(1.229858%, 55.114746%, 81.541443%)" offset="0.824219"/><stop stop-opacity="1" stop-color="rgb(1.202393%, 55.737305%, 81.951904%)" offset="0.828125"/><stop stop-opacity="1" stop-color="rgb(1.174927%, 56.358337%, 82.362366%)" offset="0.832031"/><stop stop-opacity="1" stop-color="rgb(1.147461%, 56.980896%, 82.772827%)" offset="0.835937"/><stop stop-opacity="1" stop-color="rgb(1.119995%, 57.601929%, 83.181763%)" offset="0.839844"/><stop stop-opacity="1" stop-color="rgb(1.092529%, 58.224487%, 83.592224%)" offset="0.84375"/><stop stop-opacity="1" stop-color="rgb(1.065063%, 58.84552%, 84.002686%)" offset="0.847656"/><stop stop-opacity="1" stop-color="rgb(1.037598%, 59.468079%, 84.413147%)" offset="0.851562"/><stop stop-opacity="1" stop-color="rgb(1.010132%, 60.089111%, 84.823608%)" offset="0.855469"/><stop stop-opacity="1" stop-color="rgb(0.984192%, 60.71167%, 85.23407%)" offset="0.859375"/><stop stop-opacity="1" stop-color="rgb(0.956726%, 61.332703%, 85.643005%)" offset="0.863281"/><stop stop-opacity="1" stop-color="rgb(0.92926%, 61.955261%, 86.053467%)" offset="0.867188"/><stop stop-opacity="1" stop-color="rgb(0.901794%, 62.576294%, 86.463928%)" offset="0.871094"/><stop stop-opacity="1" stop-color="rgb(0.874329%, 63.198853%, 86.87439%)" offset="0.875"/><stop stop-opacity="1" stop-color="rgb(0.846863%, 63.819885%, 87.283325%)" offset="0.878906"/><stop stop-opacity="1" stop-color="rgb(0.819397%, 64.442444%, 87.693787%)" offset="0.882812"/><stop stop-opacity="1" stop-color="rgb(0.791931%, 65.063477%, 88.104248%)" offset="0.886719"/><stop stop-opacity="1" stop-color="rgb(0.764465%, 65.686035%, 88.514709%)" offset="0.890625"/><stop stop-opacity="1" stop-color="rgb(0.737%, 66.308594%, 88.925171%)" offset="0.894531"/><stop stop-opacity="1" stop-color="rgb(0.709534%, 66.931152%, 89.335632%)" offset="0.898437"/><stop stop-opacity="1" stop-color="rgb(0.682068%, 67.552185%, 89.744568%)" offset="0.902344"/><stop stop-opacity="1" stop-color="rgb(0.656128%, 68.174744%, 90.155029%)" offset="0.90625"/><stop stop-opacity="1" stop-color="rgb(0.628662%, 68.795776%, 90.565491%)" offset="0.910156"/><stop stop-opacity="1" stop-color="rgb(0.601196%, 69.418335%, 90.975952%)" offset="0.914063"/><stop stop-opacity="1" stop-color="rgb(0.57373%, 70.039368%, 91.384888%)" offset="0.917969"/><stop stop-opacity="1" stop-color="rgb(0.546265%, 70.661926%, 91.795349%)" offset="0.921875"/><stop stop-opacity="1" stop-color="rgb(0.518799%, 71.282959%, 92.205811%)" offset="0.925781"/><stop stop-opacity="1" stop-color="rgb(0.491333%, 71.905518%, 92.616272%)" offset="0.929688"/><stop stop-opacity="1" stop-color="rgb(0.463867%, 72.52655%, 93.026733%)" offset="0.933594"/><stop stop-opacity="1" stop-color="rgb(0.436401%, 73.149109%, 93.437195%)" offset="0.9375"/><stop stop-opacity="1" stop-color="rgb(0.408936%, 73.770142%, 93.84613%)" offset="0.941406"/><stop stop-opacity="1" stop-color="rgb(0.38147%, 74.3927%, 94.256592%)" offset="0.945312"/><stop stop-opacity="1" stop-color="rgb(0.354004%, 75.013733%, 94.667053%)" offset="0.949219"/><stop stop-opacity="1" stop-color="rgb(0.328064%, 75.636292%, 95.077515%)" offset="0.953125"/><stop stop-opacity="1" stop-color="rgb(0.300598%, 76.257324%, 95.48645%)" offset="0.957031"/><stop stop-opacity="1" stop-color="rgb(0.273132%, 76.879883%, 95.896912%)" offset="0.960938"/><stop stop-opacity="1" stop-color="rgb(0.245667%, 77.500916%, 96.307373%)" offset="0.964844"/><stop stop-opacity="1" stop-color="rgb(0.218201%, 78.123474%, 96.717834%)" offset="0.96875"/><stop stop-opacity="1" stop-color="rgb(0.190735%, 78.746033%, 97.128296%)" offset="0.972656"/><stop stop-opacity="1" stop-color="rgb(0.163269%, 79.368591%, 97.538757%)" offset="0.976562"/><stop stop-opacity="1" stop-color="rgb(0.135803%, 79.989624%, 97.947693%)" offset="0.980469"/><stop stop-opacity="1" stop-color="rgb(0.108337%, 80.612183%, 98.358154%)" offset="0.984375"/><stop stop-opacity="1" stop-color="rgb(0.0808716%, 81.233215%, 98.768616%)" offset="0.988281"/><stop stop-opacity="1" stop-color="rgb(0.0534058%, 81.855774%, 99.179077%)" offset="0.992187"/><stop stop-opacity="1" stop-color="rgb(0.0259399%, 82.476807%, 99.588013%)" offset="0.996094"/><stop stop-opacity="1" stop-color="rgb(0%, 83.099365%, 99.998474%)" offset="1"/></linearGradient><clipPath id="0f4751b541"><path d="M 453 297 L 526 297 L 526 371 L 453 371 Z M 453 297 " clip-rule="nonzero"/></clipPath><clipPath id="a5cf4903bf"><path d="M 499.96875 283.828125 L 539.902344 344.382812 L 479.347656 384.316406 L 439.414062 323.761719 Z M 499.96875 283.828125 " clip-rule="nonzero"/></clipPath><clipPath id="734060cbdf"><path d="M 519.933594 314.105469 C 508.90625 297.382812 486.410156 292.769531 469.691406 303.796875 C 452.96875 314.824219 448.351562 337.316406 459.378906 354.039062 C 470.40625 370.761719 492.902344 375.378906 509.625 364.347656 C 526.347656 353.320312 530.960938 330.828125 519.933594 314.105469 Z M 519.933594 314.105469 " clip-rule="nonzero"/></clipPath><clipPath id="abbfe7c3b2"><path d="M 499.96875 283.828125 L 539.902344 344.382812 L 479.347656 384.316406 L 439.414062 323.761719 Z M 499.96875 283.828125 " clip-rule="nonzero"/></clipPath><clipPath id="04b222af0e"><path d="M 499.96875 283.828125 L 539.902344 344.382812 L 479.347656 384.316406 L 439.414062 323.761719 Z M 499.96875 283.828125 " clip-rule="nonzero"/></clipPath><linearGradient x1="-73.94858" gradientTransform="matrix(0.155994, 0.23654, -0.23654, 0.155994, 499.967555, 283.828008)" y1="-73.94858" x2="329.948552" gradientUnits="userSpaceOnUse" y2="329.948552" id="441d90bae5"><stop stop-opacity="1" stop-color="rgb(0%, 0%, 0%)" offset="0"/><stop stop-opacity="1" stop-color="rgb(0%, 0%, 0%)" offset="0.125"/><stop stop-opacity="1" stop-color="rgb(0%, 0%, 0%)" offset="0.15625"/><stop stop-opacity="1" stop-color="rgb(0%, 0%, 0%)" offset="0.171875"/><stop stop-opacity="1" stop-color="rgb(0%, 0%, 0%)" offset="0.179688"/><stop stop-opacity="1" stop-color="rgb(0.0228882%, 0.0228882%, 0.32959%)" offset="0.183594"/><stop stop-opacity="1" stop-color="rgb(0.0473022%, 0.0473022%, 0.660706%)" offset="0.1875"/><stop stop-opacity="1" stop-color="rgb(0.0900269%, 0.0900269%, 1.245117%)" offset="0.191406"/><stop stop-opacity="1" stop-color="rgb(0.134277%, 0.134277%, 1.831055%)" offset="0.195312"/><stop stop-opacity="1" stop-color="rgb(0.177002%, 0.177002%, 2.416992%)" offset="0.199219"/><stop stop-opacity="1" stop-color="rgb(0.221252%, 0.221252%, 3.00293%)" offset="0.203125"/><stop stop-opacity="1" stop-color="rgb(0.263977%, 0.263977%, 3.587341%)" offset="0.207031"/><stop stop-opacity="1" stop-color="rgb(0.306702%, 0.306702%, 4.173279%)" offset="0.210938"/><stop stop-opacity="1" stop-color="rgb(0.349426%, 0.349426%, 4.759216%)" offset="0.214844"/><stop stop-opacity="1" stop-color="rgb(0.393677%, 0.393677%, 5.345154%)" offset="0.21875"/><stop stop-opacity="1" stop-color="rgb(0.436401%, 0.436401%, 5.929565%)" offset="0.222656"/><stop stop-opacity="1" stop-color="rgb(0.479126%, 0.479126%, 6.515503%)" offset="0.226562"/><stop stop-opacity="1" stop-color="rgb(0.521851%, 0.521851%, 7.099915%)" offset="0.230469"/><stop stop-opacity="1" stop-color="rgb(0.566101%, 0.566101%, 7.685852%)" offset="0.234375"/><stop stop-opacity="1" stop-color="rgb(0.608826%, 0.608826%, 8.27179%)" offset="0.238281"/><stop stop-opacity="1" stop-color="rgb(0.65155%, 0.65155%, 8.857727%)" offset="0.242188"/><stop stop-opacity="1" stop-color="rgb(0.694275%, 0.694275%, 9.442139%)" offset="0.246094"/><stop stop-opacity="1" stop-color="rgb(0.738525%, 0.738525%, 10.028076%)" offset="0.25"/><stop stop-opacity="1" stop-color="rgb(0.78125%, 0.78125%, 10.614014%)" offset="0.253906"/><stop stop-opacity="1" stop-color="rgb(0.823975%, 0.823975%, 11.199951%)" offset="0.257812"/><stop stop-opacity="1" stop-color="rgb(0.866699%, 0.866699%, 11.784363%)" offset="0.261719"/><stop stop-opacity="1" stop-color="rgb(0.91095%, 0.91095%, 12.3703%)" offset="0.265625"/><stop stop-opacity="1" stop-color="rgb(0.953674%, 0.953674%, 12.954712%)" offset="0.269531"/><stop stop-opacity="1" stop-color="rgb(0.996399%, 0.996399%, 13.540649%)" offset="0.273438"/><stop stop-opacity="1" stop-color="rgb(1.039124%, 1.039124%, 14.126587%)" offset="0.277344"/><stop stop-opacity="1" stop-color="rgb(1.083374%, 1.083374%, 14.712524%)" offset="0.28125"/><stop stop-opacity="1" stop-color="rgb(1.126099%, 1.126099%, 15.296936%)" offset="0.285156"/><stop stop-opacity="1" stop-color="rgb(1.170349%, 1.170349%, 15.882874%)" offset="0.289062"/><stop stop-opacity="1" stop-color="rgb(1.213074%, 1.213074%, 16.468811%)" offset="0.292969"/><stop stop-opacity="1" stop-color="rgb(1.255798%, 1.255798%, 17.054749%)" offset="0.296875"/><stop stop-opacity="1" stop-color="rgb(1.298523%, 1.298523%, 17.63916%)" offset="0.300781"/><stop stop-opacity="1" stop-color="rgb(1.342773%, 1.342773%, 18.225098%)" offset="0.304688"/><stop stop-opacity="1" stop-color="rgb(1.385498%, 1.385498%, 18.809509%)" offset="0.308594"/><stop stop-opacity="1" stop-color="rgb(1.428223%, 1.428223%, 19.395447%)" offset="0.3125"/><stop stop-opacity="1" stop-color="rgb(1.470947%, 1.470947%, 19.981384%)" offset="0.316406"/><stop stop-opacity="1" stop-color="rgb(1.515198%, 1.515198%, 20.567322%)" offset="0.320312"/><stop stop-opacity="1" stop-color="rgb(1.557922%, 1.557922%, 21.151733%)" offset="0.324219"/><stop stop-opacity="1" stop-color="rgb(1.600647%, 1.600647%, 21.737671%)" offset="0.328125"/><stop stop-opacity="1" stop-color="rgb(1.643372%, 1.643372%, 22.323608%)" offset="0.332031"/><stop stop-opacity="1" stop-color="rgb(1.687622%, 1.687622%, 22.909546%)" offset="0.335937"/><stop stop-opacity="1" stop-color="rgb(1.730347%, 1.730347%, 23.493958%)" offset="0.339844"/><stop stop-opacity="1" stop-color="rgb(1.773071%, 1.773071%, 24.079895%)" offset="0.34375"/><stop stop-opacity="1" stop-color="rgb(1.815796%, 1.815796%, 24.664307%)" offset="0.347656"/><stop stop-opacity="1" stop-color="rgb(1.860046%, 1.860046%, 25.250244%)" offset="0.351562"/><stop stop-opacity="1" stop-color="rgb(1.902771%, 1.902771%, 25.836182%)" offset="0.355469"/><stop stop-opacity="1" stop-color="rgb(1.945496%, 1.945496%, 26.422119%)" offset="0.359375"/><stop stop-opacity="1" stop-color="rgb(1.98822%, 1.98822%, 27.006531%)" offset="0.363281"/><stop stop-opacity="1" stop-color="rgb(2.032471%, 2.032471%, 27.592468%)" offset="0.367187"/><stop stop-opacity="1" stop-color="rgb(2.075195%, 2.075195%, 28.178406%)" offset="0.371094"/><stop stop-opacity="1" stop-color="rgb(2.119446%, 2.119446%, 28.764343%)" offset="0.375"/><stop stop-opacity="1" stop-color="rgb(2.16217%, 2.16217%, 29.348755%)" offset="0.378906"/><stop stop-opacity="1" stop-color="rgb(2.204895%, 2.204895%, 29.934692%)" offset="0.382812"/><stop stop-opacity="1" stop-color="rgb(2.24762%, 2.24762%, 30.519104%)" offset="0.386719"/><stop stop-opacity="1" stop-color="rgb(2.29187%, 2.29187%, 31.105042%)" offset="0.390625"/><stop stop-opacity="1" stop-color="rgb(2.334595%, 2.334595%, 31.690979%)" offset="0.394531"/><stop stop-opacity="1" stop-color="rgb(2.377319%, 2.377319%, 32.276917%)" offset="0.398437"/><stop stop-opacity="1" stop-color="rgb(2.420044%, 2.420044%, 32.861328%)" offset="0.402344"/><stop stop-opacity="1" stop-color="rgb(2.464294%, 2.464294%, 33.447266%)" offset="0.40625"/><stop stop-opacity="1" stop-color="rgb(2.507019%, 2.507019%, 34.033203%)" offset="0.410156"/><stop stop-opacity="1" stop-color="rgb(2.549744%, 2.549744%, 34.619141%)" offset="0.414062"/><stop stop-opacity="1" stop-color="rgb(2.592468%, 2.592468%, 35.203552%)" offset="0.417969"/><stop stop-opacity="1" stop-color="rgb(2.636719%, 2.636719%, 35.78949%)" offset="0.421875"/><stop stop-opacity="1" stop-color="rgb(2.679443%, 2.679443%, 36.373901%)" offset="0.425781"/><stop stop-opacity="1" stop-color="rgb(2.722168%, 2.722168%, 36.959839%)" offset="0.429687"/><stop stop-opacity="1" stop-color="rgb(2.764893%, 2.764893%, 37.545776%)" offset="0.433594"/><stop stop-opacity="1" stop-color="rgb(2.809143%, 2.809143%, 38.131714%)" offset="0.4375"/><stop stop-opacity="1" stop-color="rgb(2.851868%, 2.851868%, 38.716125%)" offset="0.441406"/><stop stop-opacity="1" stop-color="rgb(2.894592%, 2.894592%, 39.302063%)" offset="0.445312"/><stop stop-opacity="1" stop-color="rgb(2.937317%, 2.937317%, 39.888%)" offset="0.449219"/><stop stop-opacity="1" stop-color="rgb(2.981567%, 2.981567%, 40.473938%)" offset="0.453125"/><stop stop-opacity="1" stop-color="rgb(3.024292%, 3.024292%, 41.05835%)" offset="0.457031"/><stop stop-opacity="1" stop-color="rgb(3.068542%, 3.068542%, 41.644287%)" offset="0.460937"/><stop stop-opacity="1" stop-color="rgb(3.111267%, 3.111267%, 42.228699%)" offset="0.464844"/><stop stop-opacity="1" stop-color="rgb(3.153992%, 3.153992%, 42.814636%)" offset="0.46875"/><stop stop-opacity="1" stop-color="rgb(3.196716%, 3.196716%, 43.400574%)" offset="0.472656"/><stop stop-opacity="1" stop-color="rgb(3.240967%, 3.240967%, 43.986511%)" offset="0.476563"/><stop stop-opacity="1" stop-color="rgb(3.283691%, 3.283691%, 44.570923%)" offset="0.480469"/><stop stop-opacity="1" stop-color="rgb(3.326416%, 3.326416%, 45.15686%)" offset="0.484375"/><stop stop-opacity="1" stop-color="rgb(3.369141%, 3.369141%, 45.742798%)" offset="0.488281"/><stop stop-opacity="1" stop-color="rgb(3.413391%, 3.413391%, 46.328735%)" offset="0.492187"/><stop stop-opacity="1" stop-color="rgb(3.456116%, 3.456116%, 46.913147%)" offset="0.496094"/><stop stop-opacity="1" stop-color="rgb(3.49884%, 3.49884%, 47.499084%)" offset="0.5"/><stop stop-opacity="1" stop-color="rgb(3.456116%, 4.47998%, 48.146057%)" offset="0.503906"/><stop stop-opacity="1" stop-color="rgb(3.413391%, 5.461121%, 48.79303%)" offset="0.507812"/><stop stop-opacity="1" stop-color="rgb(3.369141%, 6.442261%, 49.440002%)" offset="0.511719"/><stop stop-opacity="1" stop-color="rgb(3.326416%, 7.423401%, 50.086975%)" offset="0.515625"/><stop stop-opacity="1" stop-color="rgb(3.283691%, 8.404541%, 50.733948%)" offset="0.519531"/><stop stop-opacity="1" stop-color="rgb(3.240967%, 9.385681%, 51.382446%)" offset="0.523438"/><stop stop-opacity="1" stop-color="rgb(3.196716%, 10.366821%, 52.029419%)" offset="0.527344"/><stop stop-opacity="1" stop-color="rgb(3.153992%, 11.347961%, 52.676392%)" offset="0.53125"/><stop stop-opacity="1" stop-color="rgb(3.111267%, 12.329102%, 53.323364%)" offset="0.535156"/><stop stop-opacity="1" stop-color="rgb(3.068542%, 13.310242%, 53.970337%)" offset="0.539062"/><stop stop-opacity="1" stop-color="rgb(3.024292%, 14.291382%, 54.61731%)" offset="0.542969"/><stop stop-opacity="1" stop-color="rgb(2.981567%, 15.272522%, 55.264282%)" offset="0.546875"/><stop stop-opacity="1" stop-color="rgb(2.937317%, 16.253662%, 55.911255%)" offset="0.550781"/><stop stop-opacity="1" stop-color="rgb(2.894592%, 17.234802%, 56.558228%)" offset="0.554688"/><stop stop-opacity="1" stop-color="rgb(2.851868%, 18.215942%, 57.2052%)" offset="0.558594"/><stop stop-opacity="1" stop-color="rgb(2.809143%, 19.197083%, 57.853699%)" offset="0.5625"/><stop stop-opacity="1" stop-color="rgb(2.764893%, 20.178223%, 58.500671%)" offset="0.566406"/><stop stop-opacity="1" stop-color="rgb(2.722168%, 21.159363%, 59.147644%)" offset="0.570312"/><stop stop-opacity="1" stop-color="rgb(2.679443%, 22.140503%, 59.794617%)" offset="0.574219"/><stop stop-opacity="1" stop-color="rgb(2.636719%, 23.121643%, 60.441589%)" offset="0.578125"/><stop stop-opacity="1" stop-color="rgb(2.592468%, 24.102783%, 61.088562%)" offset="0.582031"/><stop stop-opacity="1" stop-color="rgb(2.549744%, 25.083923%, 61.735535%)" offset="0.585938"/><stop stop-opacity="1" stop-color="rgb(2.507019%, 26.065063%, 62.382507%)" offset="0.589844"/><stop stop-opacity="1" stop-color="rgb(2.464294%, 27.046204%, 63.02948%)" offset="0.59375"/><stop stop-opacity="1" stop-color="rgb(2.420044%, 28.027344%, 63.676453%)" offset="0.597656"/><stop stop-opacity="1" stop-color="rgb(2.377319%, 29.008484%, 64.323425%)" offset="0.601562"/><stop stop-opacity="1" stop-color="rgb(2.334595%, 29.989624%, 64.970398%)" offset="0.605469"/><stop stop-opacity="1" stop-color="rgb(2.29187%, 30.970764%, 65.618896%)" offset="0.609375"/><stop stop-opacity="1" stop-color="rgb(2.24762%, 31.951904%, 66.265869%)" offset="0.613281"/><stop stop-opacity="1" stop-color="rgb(2.204895%, 32.933044%, 66.912842%)" offset="0.617188"/><stop stop-opacity="1" stop-color="rgb(2.16217%, 33.914185%, 67.559814%)" offset="0.621094"/><stop stop-opacity="1" stop-color="rgb(2.119446%, 34.895325%, 68.206787%)" offset="0.625"/><stop stop-opacity="1" stop-color="rgb(2.075195%, 35.876465%, 68.85376%)" offset="0.628906"/><stop stop-opacity="1" stop-color="rgb(2.032471%, 36.857605%, 69.500732%)" offset="0.632812"/><stop stop-opacity="1" stop-color="rgb(1.98822%, 37.838745%, 70.147705%)" offset="0.636719"/><stop stop-opacity="1" stop-color="rgb(1.945496%, 38.819885%, 70.794678%)" offset="0.640625"/><stop stop-opacity="1" stop-color="rgb(1.902771%, 39.801025%, 71.44165%)" offset="0.644531"/><stop stop-opacity="1" stop-color="rgb(1.860046%, 40.782166%, 72.090149%)" offset="0.648438"/><stop stop-opacity="1" stop-color="rgb(1.815796%, 41.763306%, 72.737122%)" offset="0.652344"/><stop stop-opacity="1" stop-color="rgb(1.773071%, 42.744446%, 73.384094%)" offset="0.65625"/><stop stop-opacity="1" stop-color="rgb(1.730347%, 43.725586%, 74.031067%)" offset="0.660156"/><stop stop-opacity="1" stop-color="rgb(1.687622%, 44.706726%, 74.67804%)" offset="0.664062"/><stop stop-opacity="1" stop-color="rgb(1.643372%, 45.687866%, 75.325012%)" offset="0.667969"/><stop stop-opacity="1" stop-color="rgb(1.600647%, 46.669006%, 75.971985%)" offset="0.671875"/><stop stop-opacity="1" stop-color="rgb(1.557922%, 47.650146%, 76.618958%)" offset="0.675781"/><stop stop-opacity="1" stop-color="rgb(1.515198%, 48.631287%, 77.26593%)" offset="0.679688"/><stop stop-opacity="1" stop-color="rgb(1.470947%, 49.612427%, 77.912903%)" offset="0.683594"/><stop stop-opacity="1" stop-color="rgb(1.428223%, 50.593567%, 78.561401%)" offset="0.6875"/><stop stop-opacity="1" stop-color="rgb(1.385498%, 51.574707%, 79.208374%)" offset="0.691406"/><stop stop-opacity="1" stop-color="rgb(1.342773%, 52.555847%, 79.855347%)" offset="0.695312"/><stop stop-opacity="1" stop-color="rgb(1.298523%, 53.536987%, 80.502319%)" offset="0.699219"/><stop stop-opacity="1" stop-color="rgb(1.255798%, 54.518127%, 81.149292%)" offset="0.703125"/><stop stop-opacity="1" stop-color="rgb(1.213074%, 55.499268%, 81.796265%)" offset="0.707031"/><stop stop-opacity="1" stop-color="rgb(1.170349%, 56.480408%, 82.443237%)" offset="0.710938"/><stop stop-opacity="1" stop-color="rgb(1.126099%, 57.461548%, 83.09021%)" offset="0.714844"/><stop stop-opacity="1" stop-color="rgb(1.083374%, 58.442688%, 83.737183%)" offset="0.71875"/><stop stop-opacity="1" stop-color="rgb(1.039124%, 59.423828%, 84.384155%)" offset="0.722656"/><stop stop-opacity="1" stop-color="rgb(0.996399%, 60.404968%, 85.031128%)" offset="0.726562"/><stop stop-opacity="1" stop-color="rgb(0.953674%, 61.386108%, 85.678101%)" offset="0.730469"/><stop stop-opacity="1" stop-color="rgb(0.91095%, 62.368774%, 86.326599%)" offset="0.734375"/><stop stop-opacity="1" stop-color="rgb(0.866699%, 63.349915%, 86.973572%)" offset="0.738281"/><stop stop-opacity="1" stop-color="rgb(0.823975%, 64.331055%, 87.620544%)" offset="0.742188"/><stop stop-opacity="1" stop-color="rgb(0.78125%, 65.312195%, 88.267517%)" offset="0.746094"/><stop stop-opacity="1" stop-color="rgb(0.738525%, 66.293335%, 88.91449%)" offset="0.75"/><stop stop-opacity="1" stop-color="rgb(0.694275%, 67.274475%, 89.561462%)" offset="0.753906"/><stop stop-opacity="1" stop-color="rgb(0.65155%, 68.255615%, 90.208435%)" offset="0.757812"/><stop stop-opacity="1" stop-color="rgb(0.608826%, 69.236755%, 90.855408%)" offset="0.761719"/><stop stop-opacity="1" stop-color="rgb(0.566101%, 70.217896%, 91.50238%)" offset="0.765625"/><stop stop-opacity="1" stop-color="rgb(0.521851%, 71.199036%, 92.149353%)" offset="0.769531"/><stop stop-opacity="1" stop-color="rgb(0.479126%, 72.180176%, 92.797852%)" offset="0.773438"/><stop stop-opacity="1" stop-color="rgb(0.436401%, 73.161316%, 93.444824%)" offset="0.777344"/><stop stop-opacity="1" stop-color="rgb(0.393677%, 74.142456%, 94.091797%)" offset="0.78125"/><stop stop-opacity="1" stop-color="rgb(0.349426%, 75.123596%, 94.73877%)" offset="0.785156"/><stop stop-opacity="1" stop-color="rgb(0.306702%, 76.104736%, 95.385742%)" offset="0.789062"/><stop stop-opacity="1" stop-color="rgb(0.263977%, 77.085876%, 96.032715%)" offset="0.792969"/><stop stop-opacity="1" stop-color="rgb(0.221252%, 78.067017%, 96.679688%)" offset="0.796875"/><stop stop-opacity="1" stop-color="rgb(0.177002%, 79.048157%, 97.32666%)" offset="0.800781"/><stop stop-opacity="1" stop-color="rgb(0.134277%, 80.029297%, 97.973633%)" offset="0.804688"/><stop stop-opacity="1" stop-color="rgb(0.0900269%, 81.010437%, 98.620605%)" offset="0.808594"/><stop stop-opacity="1" stop-color="rgb(0.0473022%, 81.991577%, 99.267578%)" offset="0.8125"/><stop stop-opacity="1" stop-color="rgb(0.0228882%, 82.545471%, 99.633789%)" offset="0.816406"/><stop stop-opacity="1" stop-color="rgb(0%, 83.099365%, 100%)" offset="0.820312"/><stop stop-opacity="1" stop-color="rgb(0%, 83.099365%, 100%)" offset="0.828125"/><stop stop-opacity="1" stop-color="rgb(0%, 83.099365%, 100%)" offset="0.84375"/><stop stop-opacity="1" stop-color="rgb(0%, 83.099365%, 100%)" offset="0.875"/><stop stop-opacity="1" stop-color="rgb(0%, 83.099365%, 100%)" offset="1"/></linearGradient><clipPath id="6342ede13f"><path d="M 41.378906 0 L 399 0 L 399 470.839844 L 41.378906 470.839844 Z M 41.378906 0 " clip-rule="nonzero"/></clipPath></defs><g clip-path="url(#54e5b322e3)"><g clip-path="url(#904f0eb6be)"><path fill="url(#8c85abf9be)" d="M 0.0898438 198.550781 L 0.0898438 738.371094 L 539.910156 738.371094 L 539.910156 198.550781 Z M 0.0898438 198.550781 " fill-rule="nonzero"/></g></g><g clip-path="url(#0f4751b541)"><g clip-path="url(#a5cf4903bf)"><g clip-path="url(#734060cbdf)"><g clip-path="url(#abbfe7c3b2)"><g clip-path="url(#04b222af0e)"><path fill="url(#441d90bae5)" d="M 505.925781 254.800781 L 410.386719 317.804688 L 473.390625 413.34375 L 568.929688 350.339844 Z M 505.925781 254.800781 " fill-rule="nonzero"/></g></g></g></g></g><g clip-path="url(#6342ede13f)"><path fill="#000000" d="M 171.1875 19.078125 C 171.523438 19.078125 173.113281 20.75 173.113281 21.085938 C 173.117188 21.277344 173.285156 21.746094 173.511719 22.132812 C 174.101562 23.265625 175.664062 28.574219 175.671875 29.488281 C 175.675781 29.957031 175.570312 30.679688 175.4375 31.125 C 175.300781 31.570312 174.921875 32.875 174.597656 34.011719 C 174.277344 35.152344 173.925781 36.34375 173.789062 36.652344 C 173.652344 36.957031 173.21875 38.011719 172.808594 39.011719 C 172.152344 40.675781 171.769531 41.511719 171.566406 41.511719 C 171.355469 41.511719 171.324219 40.636719 171.367188 38.886719 C 171.4375 37.027344 171.621094 35.558594 171.839844 35.140625 C 172.082031 34.667969 172.238281 33.117188 172.300781 30.289062 C 172.355469 26.660156 172.292969 25.910156 171.78125 24.363281 C 171.441406 23.398438 171.1875 22.402344 171.183594 22.152344 C 171.183594 21.875 170.984375 21.433594 170.761719 21.128906 C 170.257812 20.496094 170.226562 19.859375 170.664062 19.414062 C 170.855469 19.21875 171.078125 19.078125 171.1875 19.078125 Z M 197.539062 44.546875 C 197.960938 44.546875 199.054688 45.703125 199.90625 47.035156 L 200.4375 47.945312 L 199.828125 47.949219 C 199.828125 47.949219 199.824219 47.949219 199.824219 47.949219 C 198.855469 47.949219 196.730469 44.839844 197.476562 44.558594 C 197.496094 44.550781 197.515625 44.546875 197.539062 44.546875 Z M 171.6875 54.539062 C 171.851562 54.539062 171.988281 54.648438 171.988281 54.8125 C 171.992188 54.953125 171.9375 55.089844 171.882812 55.089844 L 171.878906 55.089844 C 171.796875 55.089844 171.660156 54.953125 171.574219 54.816406 C 171.488281 54.652344 171.542969 54.539062 171.683594 54.539062 C 171.683594 54.539062 171.683594 54.539062 171.6875 54.539062 Z M 143.050781 -0.00390625 C 140.308594 -0.00390625 138.738281 0.101562 137.777344 0.355469 C 136.949219 0.554688 134.515625 1.101562 132.386719 1.53125 C 128.875 2.222656 126.582031 3.074219 125.234375 4.164062 C 125.070312 4.304688 124.460938 4.503906 123.851562 4.589844 C 122.164062 4.90625 117.757812 8.074219 116.636719 9.769531 C 116.113281 10.523438 115.707031 11.359375 115.707031 11.605469 C 115.710938 11.828125 115.464844 12.496094 115.164062 13.050781 C 114.863281 13.636719 114.621094 14.277344 114.621094 14.46875 C 114.625 14.96875 113.597656 18.078125 113.023438 19.21875 C 111.769531 21.777344 110.839844 30.292969 111.445312 33.667969 C 112.109375 37.292969 112.113281 37.457031 111.597656 38.847656 C 111.324219 39.570312 110.753906 40.738281 110.34375 41.433594 C 108.265625 44.886719 107.9375 45.582031 107.644531 46.96875 C 107.296875 48.6875 107.449219 50.683594 108.007812 51.316406 C 108.203125 51.535156 109.234375 52.164062 110.289062 52.65625 L 112.234375 53.582031 L 112.277344 55.21875 C 112.339844 56.4375 112.511719 57.042969 112.960938 57.621094 C 113.296875 58.035156 113.578125 58.617188 113.578125 58.890625 C 113.585938 60 114.457031 61.574219 115.234375 61.898438 C 116.402344 62.363281 117.105469 63.492188 117.285156 65.238281 C 117.519531 67.117188 118.253906 68.71875 119.28125 69.460938 C 119.867188 69.875 120.292969 69.996094 122.019531 69.996094 C 122.347656 69.996094 122.726562 69.992188 123.164062 69.984375 L 126.265625 69.960938 L 128.886719 68.636719 C 130.324219 67.90625 131.671875 67.121094 131.921875 66.925781 C 132.417969 66.464844 133.535156 66.132812 134.34375 66.132812 C 134.558594 66.132812 134.753906 66.15625 134.90625 66.210938 C 135.242188 66.34375 136.523438 67.386719 137.777344 68.570312 C 139.648438 70.328125 140.234375 71.15625 141.445312 73.472656 C 142.765625 76.011719 143.390625 77.949219 143.828125 80.992188 C 144.003906 82.097656 143.949219 82.238281 142.824219 83.4375 C 142.164062 84.164062 140.871094 85.253906 139.988281 85.898438 C 138.199219 87.1875 136.328125 89.027344 136.085938 89.78125 C 135.898438 90.417969 133.636719 91.710938 131.976562 92.136719 C 125.730469 93.738281 123.273438 95.140625 122.050781 97.867188 C 121.804688 98.394531 121.339844 99.285156 121.011719 99.84375 C 119.207031 102.933594 118.632812 103.988281 118.089844 105.378906 C 117.765625 106.210938 117.277344 107.40625 117.003906 108.019531 C 116.757812 108.628906 116.273438 110.242188 115.953125 111.628906 C 115.628906 112.988281 115.199219 114.738281 114.984375 115.515625 C 114.769531 116.265625 114.421875 117.875 114.207031 119.070312 C 113.890625 120.761719 113.5625 121.621094 112.605469 123.097656 C 111.921875 124.128906 111.019531 125.605469 110.609375 126.382812 C 110.171875 127.132812 109.460938 128.441406 108.996094 129.25 C 108.558594 130.054688 107.902344 131.140625 107.601562 131.644531 C 107.273438 132.144531 106.917969 132.839844 106.8125 133.171875 C 106.703125 133.535156 106.238281 134.3125 105.746094 134.953125 C 105.03125 135.929688 103.941406 138.128906 101.898438 142.769531 C 101.679688 143.214844 101.4375 143.910156 101.355469 144.296875 C 101.113281 145.242188 99.535156 148.71875 97.925781 151.75 L 97.460938 152.667969 L 97.039062 152.0625 C 96.789062 151.730469 95.671875 150.519531 94.554688 149.367188 C 93.4375 148.210938 91.679688 146.394531 90.675781 145.351562 C 89.667969 144.277344 88.273438 142.929688 87.574219 142.328125 C 85.984375 140.898438 82.796875 136.90625 81.058594 134.121094 C 80.300781 132.90625 79.546875 131.886719 79.351562 131.804688 C 79.019531 131.695312 75.601562 126.679688 75.597656 126.347656 C 75.597656 126.265625 75.09375 125.492188 74.503906 124.609375 C 72.769531 122.101562 70.347656 117.273438 70.144531 115.890625 C 70 115.03125 70.074219 114.144531 70.320312 113.285156 C 70.5625 112.5625 70.796875 110.839844 70.871094 109.484375 C 70.941406 108.097656 71.207031 106.292969 71.421875 105.460938 C 71.636719 104.628906 71.820312 103.074219 71.808594 102.023438 C 71.796875 100.304688 71.683594 99.917969 70.699219 98.234375 C 70.113281 97.214844 69.519531 95.972656 69.40625 95.445312 C 69.289062 94.949219 69.09375 94.394531 68.980469 94.257812 C 68.867188 94.09375 68.699219 93.402344 68.582031 92.710938 C 68.464844 92.019531 68.039062 90.71875 67.589844 89.808594 C 67.167969 88.925781 66.714844 87.570312 66.625 86.851562 C 66.507812 85.992188 66.085938 85.054688 65.523438 84.28125 C 64.761719 83.234375 64.53125 83.078125 63.617188 83.078125 C 63.597656 83.078125 63.574219 83.078125 63.550781 83.078125 C 62.578125 83.085938 62.25 83.253906 61.230469 84.34375 C 60.488281 85.140625 60.164062 85.425781 59.847656 85.425781 C 59.71875 85.425781 59.589844 85.378906 59.4375 85.300781 C 59.164062 85.15625 58.613281 85.09375 57.96875 85.09375 C 56.652344 85.09375 54.964844 85.359375 54.539062 85.753906 C 54.210938 86.058594 53.546875 86.203125 52.355469 86.210938 C 50.777344 86.226562 50.554688 86.308594 49.675781 87.175781 C 49.152344 87.707031 48.714844 88.261719 48.714844 88.429688 C 48.71875 88.597656 48.441406 88.738281 48.136719 88.738281 C 47.804688 88.742188 47.085938 89.023438 46.507812 89.332031 C 45.40625 89.953125 45.378906 90.0625 44.710938 93.394531 C 44.660156 93.753906 44.273438 94.089844 43.691406 94.289062 C 41.675781 94.96875 41.5 97.101562 42.832031 104.851562 C 43.179688 106.84375 43.574219 107.863281 45.542969 111.617188 C 47.257812 114.957031 48.238281 116.472656 49.496094 117.820312 C 50.417969 118.8125 51.371094 120.050781 51.625 120.574219 C 51.875 121.101562 52.4375 121.898438 52.855469 122.367188 C 53.300781 122.808594 54.085938 123.9375 54.621094 124.847656 C 55.152344 125.757812 56.246094 127.605469 57.0625 128.984375 C 58.914062 132.019531 60.148438 134.390625 60.152344 134.835938 C 60.15625 135.359375 62.125 139.28125 62.796875 140.105469 C 63.132812 140.519531 63.835938 141.789062 64.34375 142.921875 C 65.582031 145.570312 67.355469 149.132812 68.082031 150.375 C 68.390625 150.898438 68.84375 151.808594 69.039062 152.386719 C 69.238281 152.941406 69.714844 153.824219 70.082031 154.320312 C 70.472656 154.789062 71.003906 155.699219 71.285156 156.304688 C 71.566406 156.914062 72.410156 158.457031 73.167969 159.753906 C 73.925781 161.050781 74.910156 162.789062 75.332031 163.617188 C 75.78125 164.445312 76.566406 165.601562 77.097656 166.179688 C 77.625 166.757812 78.859375 168.328125 79.835938 169.734375 C 80.789062 171.109375 82.414062 173.121094 83.445312 174.195312 C 86.375 177.21875 90.515625 182.5625 92.230469 185.488281 C 93.148438 187.046875 94.671875 187.839844 96.492188 187.839844 C 97.890625 187.839844 99.464844 187.367188 101.070312 186.414062 C 102.121094 185.796875 103.085938 185.292969 103.195312 185.292969 C 103.308594 185.289062 103.582031 185.09375 103.773438 184.84375 C 103.964844 184.59375 104.378906 184.285156 104.710938 184.144531 C 108.023438 182.648438 109.839844 181.140625 112.636719 177.597656 C 113.378906 176.679688 114.3125 175.703125 114.699219 175.394531 C 115.714844 174.636719 118.488281 171.429688 119.363281 170.011719 C 119.773438 169.371094 121.035156 167.753906 122.191406 166.386719 C 123.34375 165.046875 124.632812 163.292969 125.039062 162.542969 C 125.476562 161.761719 126.683594 159.980469 127.75 158.53125 C 128.820312 157.109375 130.054688 155.355469 130.519531 154.601562 C 130.957031 153.878906 131.832031 152.542969 132.433594 151.621094 C 133.039062 150.703125 133.667969 149.703125 133.832031 149.421875 C 133.960938 149.207031 134.050781 149.089844 134.179688 149.089844 C 134.347656 149.089844 134.589844 149.292969 135.078125 149.746094 C 136.390625 150.957031 139.648438 152.953125 141.257812 153.523438 C 142.007812 153.792969 144.144531 154.164062 146 154.34375 C 149.714844 154.703125 151.019531 155.191406 151.722656 156.542969 C 152.648438 158.3125 155.84375 162.941406 156.933594 164.097656 C 157.574219 164.785156 158.664062 166.1875 159.367188 167.265625 C 160.066406 168.3125 162.136719 170.789062 164.007812 172.714844 C 167.46875 176.316406 167.972656 177.035156 169.523438 180.625 C 170.003906 181.757812 170.847656 183.632812 171.410156 184.765625 C 171.945312 185.898438 172.648438 187.386719 172.960938 188.105469 L 173.496094 189.347656 L 172.445312 189.691406 C 171.867188 189.886719 171.230469 190.03125 171.09375 190.03125 C 170.925781 190.035156 170.097656 190.34375 169.269531 190.738281 C 168.441406 191.132812 167.613281 191.445312 167.417969 191.445312 C 167.226562 191.449219 166.480469 191.757812 165.707031 192.097656 C 164.960938 192.460938 163.664062 192.859375 162.832031 192.949219 C 162.003906 193.066406 161.199219 193.265625 161.035156 193.433594 C 160.898438 193.574219 160.511719 193.714844 160.179688 193.71875 C 159.679688 193.722656 156.890625 194.492188 154.929688 195.199219 C 154.488281 195.371094 153.546875 195.679688 152.855469 195.9375 C 152.167969 196.164062 151.285156 196.613281 150.871094 196.894531 C 150.484375 197.171875 150.015625 197.398438 149.847656 197.398438 C 149.683594 197.402344 149.074219 197.65625 148.523438 197.964844 C 147.945312 198.273438 147.28125 198.527344 147.058594 198.53125 C 146.8125 198.53125 146.371094 198.730469 146.066406 198.953125 C 145.792969 199.175781 145.351562 199.375 145.128906 199.375 C 144.90625 199.378906 144.242188 199.632812 143.664062 199.941406 C 143.113281 200.25 142.449219 200.503906 142.226562 200.507812 C 142.007812 200.507812 140.847656 201.015625 139.6875 201.664062 C 138.503906 202.28125 136.792969 203.125 135.882812 203.519531 C 134.96875 203.914062 133.148438 204.953125 131.828125 205.851562 C 130.476562 206.75 129.152344 207.589844 128.851562 207.675781 C 127.910156 207.988281 124.105469 210.121094 122.066406 211.46875 C 121.019531 212.167969 119.859375 212.898438 119.476562 213.09375 C 119.089844 213.265625 118.042969 214.046875 117.132812 214.832031 C 116.226562 215.585938 114.984375 216.480469 114.378906 216.820312 C 113.304688 217.410156 110.605469 219.34375 109.890625 220.066406 C 109.257812 220.710938 107.273438 222 105.785156 222.757812 C 105.011719 223.179688 103.386719 224.46875 102.175781 225.667969 C 100.996094 226.871094 99.703125 228.125 99.347656 228.433594 C 98.355469 229.328125 97.449219 230.414062 97.453125 230.691406 C 97.453125 230.832031 97.039062 231.082031 96.542969 231.28125 C 95.632812 231.621094 94.699219 233.011719 94.707031 234.066406 C 94.710938 234.316406 94.4375 234.984375 94.109375 235.511719 C 93.234375 236.902344 92.582031 238.378906 91.6875 240.988281 C 90.820312 243.515625 90.742188 244.210938 91.277344 245.230469 C 91.5 245.617188 91.757812 246.363281 91.84375 246.890625 C 92.101562 248.078125 101.578125 266.597656 103.035156 268.691406 C 103.59375 269.519531 104.15625 270.511719 104.269531 270.898438 C 104.582031 271.894531 105.761719 274.15625 106.800781 275.726562 C 108.003906 277.546875 109.070312 279.367188 109.605469 280.527344 C 109.832031 281.050781 110.589844 282.097656 111.257812 282.871094 C 111.902344 283.640625 112.769531 284.769531 113.164062 285.378906 C 113.554688 285.984375 114.53125 287.085938 115.3125 287.855469 C 116.09375 288.597656 116.738281 289.3125 116.738281 289.449219 C 116.742188 289.949219 119.679688 293.917969 121.46875 295.84375 C 122.503906 296.96875 123.59375 298.347656 123.902344 298.925781 C 124.183594 299.507812 126.027344 301.515625 127.953125 303.410156 C 129.878906 305.308594 131.777344 307.34375 132.171875 307.949219 C 132.925781 309.136719 133.90625 310.183594 135.492188 311.527344 C 136.023438 311.964844 136.804688 312.847656 137.199219 313.453125 C 137.589844 314.058594 138.457031 315.105469 139.101562 315.765625 C 139.742188 316.453125 140.804688 317.636719 141.445312 318.40625 C 142.0625 319.179688 143.207031 320.5 143.933594 321.324219 C 145.21875 322.8125 145.808594 323.582031 148.496094 327.414062 C 149.222656 328.460938 149.921875 329.285156 150.035156 329.285156 C 150.171875 329.285156 150.285156 329.453125 150.285156 329.644531 C 150.289062 329.867188 150.539062 330.253906 150.847656 330.527344 C 151.152344 330.800781 151.40625 331.132812 151.40625 331.242188 C 151.40625 331.355469 152.136719 332.429688 153.03125 333.613281 C 153.898438 334.796875 155.046875 336.589844 155.554688 337.613281 C 156.0625 338.632812 156.734375 339.597656 157.011719 339.761719 C 157.761719 340.144531 157.710938 340.558594 156.804688 341.703125 C 156.363281 342.230469 155.953125 342.902344 155.847656 343.152344 C 155.710938 343.511719 155.378906 343.652344 154.519531 343.660156 L 153.386719 343.667969 L 153.558594 344.832031 C 153.792969 346.519531 153.792969 346.464844 153.5 347.683594 C 152.90625 350.015625 153.433594 353.914062 154.320312 353.914062 L 154.324219 353.914062 C 154.792969 353.914062 155.214844 354.960938 155.027344 355.707031 C 154.949219 356.097656 154.730469 356.402344 154.589844 356.40625 C 154.230469 356.40625 153.160156 357.605469 152.421875 358.777344 C 151.820312 359.75 151.753906 362.023438 152.289062 363.070312 C 152.570312 363.652344 153.765625 364.445312 154.820312 364.796875 C 155.042969 364.878906 154.472656 366.214844 153.1875 368.605469 C 153 368.996094 152.5625 369.886719 152.234375 370.636719 C 151.882812 371.359375 151.386719 372.167969 151.113281 372.417969 C 150.839844 372.671875 150.621094 373.253906 150.625 373.726562 C 150.628906 374.195312 150.386719 374.945312 150.085938 375.417969 C 149.78125 375.890625 149.539062 376.726562 149.542969 377.308594 C 149.550781 377.917969 149.363281 378.804688 149.117188 379.332031 C 148.652344 380.335938 146.511719 382.652344 145.328125 383.464844 C 144.941406 383.714844 143.949219 384.554688 143.152344 385.308594 C 141.585938 386.789062 138.832031 388.945312 138.5 388.945312 C 138.363281 388.949219 137.894531 389.53125 137.457031 390.257812 C 136.746094 391.398438 136.636719 391.816406 136.652344 393.53125 C 136.660156 394.613281 136.804688 395.636719 136.945312 395.773438 C 137.113281 395.9375 137.371094 396.796875 137.515625 397.683594 C 137.863281 399.757812 138.28125 400.335938 140.175781 401.402344 C 141.292969 402.03125 141.621094 402.207031 142.859375 402.207031 C 143.34375 402.207031 143.96875 402.179688 144.832031 402.140625 C 146.714844 402.042969 148.210938 401.839844 148.625 401.613281 C 149.011719 401.390625 149.867188 401.132812 150.558594 401.015625 C 152.46875 400.726562 155.035156 399.957031 156.222656 399.339844 C 156.832031 399.027344 157.546875 398.773438 157.824219 398.773438 C 158.101562 398.769531 159.039062 398.320312 159.894531 397.785156 C 160.777344 397.28125 162.046875 396.6875 162.792969 396.488281 C 163.679688 396.261719 164.421875 395.839844 165.136719 395.058594 C 165.878906 394.304688 166.566406 393.882812 167.425781 393.683594 C 169.054688 393.308594 169.800781 392.75 170.261719 391.609375 C 170.695312 390.582031 171.882812 389.796875 173.046875 389.789062 C 173.988281 389.78125 174.785156 389.332031 175.582031 388.382812 C 175.9375 387.9375 176.902344 387.210938 177.757812 386.730469 C 178.585938 386.226562 179.355469 385.640625 179.4375 385.390625 C 179.519531 385.167969 180.207031 384.691406 180.925781 384.351562 C 181.644531 384.042969 182.828125 383.203125 183.570312 382.503906 C 184.285156 381.804688 185.46875 380.992188 186.1875 380.738281 C 187.679688 380.144531 190.820312 378.152344 190.816406 377.765625 C 190.816406 377.625 192.140625 376.867188 193.796875 376.050781 C 195.425781 375.261719 197.1875 374.195312 197.710938 373.695312 C 198.234375 373.191406 199.636719 372.15625 200.851562 371.398438 C 202.035156 370.640625 203.21875 369.691406 203.519531 369.300781 C 203.796875 368.910156 205.0625 367.847656 206.355469 366.976562 C 210.296875 364.289062 212.160156 361.945312 212.144531 359.757812 C 212.136719 358.566406 212.023438 358.34375 211.019531 357.492188 C 210.40625 356.972656 209.597656 356.480469 209.210938 356.371094 C 208.820312 356.292969 208.292969 356.15625 208.046875 356.074219 C 207.769531 356.023438 207.542969 355.71875 207.542969 355.386719 C 207.539062 355.082031 207.339844 354.5 207.144531 354.117188 C 206.917969 353.703125 206.496094 352.902344 206.242188 352.320312 C 205.988281 351.742188 205.261719 350.859375 204.648438 350.394531 C 204.0625 349.898438 202.976562 348.6875 202.300781 347.640625 C 200.789062 345.4375 195.570312 340.15625 193.984375 339.226562 C 193.371094 338.871094 192.117188 337.855469 191.195312 337.003906 C 189.015625 334.964844 188.339844 334.542969 187.199219 334.542969 C 187.1875 334.542969 187.171875 334.542969 187.160156 334.542969 C 187.132812 334.542969 187.105469 334.542969 187.082031 334.542969 C 186.011719 334.542969 185.761719 334.363281 185.242188 333.449219 C 185.042969 333.0625 183.898438 331.464844 182.695312 329.867188 C 181.492188 328.269531 180.117188 326.226562 179.613281 325.316406 C 179.105469 324.40625 178.238281 323.140625 177.679688 322.507812 C 176.140625 320.746094 175.414062 319.753906 175.410156 319.367188 C 175.410156 319.171875 175.242188 318.8125 175.046875 318.59375 C 174.710938 318.179688 171.933594 313.65625 170.894531 311.808594 C 169.828125 309.90625 166.984375 304.21875 166.984375 303.996094 C 166.984375 303.832031 166.421875 303.058594 165.75 302.261719 C 165.082031 301.433594 164.4375 300.46875 164.324219 300.082031 C 164.207031 299.695312 163.898438 298.894531 163.617188 298.289062 C 162.546875 295.96875 162.234375 295.195312 161.695312 293.453125 C 161.382812 292.457031 161.039062 291.019531 160.921875 290.273438 C 160.804688 289.5 160.550781 288.476562 160.324219 287.949219 C 160.097656 287.453125 159.925781 286.679688 159.921875 286.234375 C 159.914062 285.042969 158.613281 281.507812 156.925781 278.113281 C 156.558594 277.339844 156.246094 276.511719 156.246094 276.261719 C 156.242188 276.011719 156.101562 275.707031 155.9375 275.625 C 155.796875 275.515625 155.347656 274.746094 154.953125 273.890625 C 154.558594 273.003906 154.136719 272.121094 153.996094 271.902344 C 153.855469 271.679688 153.351562 270.824219 152.875 270.054688 C 152.398438 269.253906 151.78125 268.453125 151.503906 268.261719 C 151.25 268.070312 150.691406 267.355469 150.300781 266.664062 C 149.234375 264.871094 143.949219 258.484375 142.332031 257.027344 C 140.992188 255.792969 139.734375 254.113281 139.726562 253.476562 C 139.722656 252.921875 142.210938 252.015625 144.808594 251.605469 C 145.945312 251.414062 146.988281 251.296875 147.34375 251.296875 C 147.410156 251.296875 147.453125 251.300781 147.464844 251.308594 C 147.484375 251.316406 147.539062 251.324219 147.625 251.324219 C 148.082031 251.324219 149.441406 251.203125 150.953125 251.003906 C 153.832031 250.625 186.726562 249.484375 196.976562 249.402344 L 199.800781 249.382812 L 199.792969 248.578125 C 199.789062 247.777344 200.257812 247.4375 202.027344 247.039062 L 202.71875 246.894531 L 202.695312 254.847656 C 202.671875 259.222656 202.765625 263.765625 202.855469 264.957031 C 203.09375 267.464844 203.375 267.976562 205.746094 267.976562 C 206.097656 267.976562 206.496094 267.964844 206.949219 267.945312 C 207.640625 267.917969 208.195312 267.898438 208.644531 267.898438 C 210.398438 267.898438 210.46875 268.207031 210.480469 269.554688 C 210.488281 270.300781 210.746094 271.628906 211.03125 272.488281 C 211.339844 273.371094 211.65625 274.671875 211.773438 275.390625 C 211.859375 276.109375 212.058594 276.773438 212.226562 276.855469 C 212.367188 276.964844 212.480469 277.378906 212.484375 277.796875 C 212.488281 278.597656 213.964844 283.242188 214.613281 284.457031 C 215.035156 285.285156 216.050781 287.910156 216.308594 288.875 C 216.394531 289.265625 216.59375 289.816406 216.734375 290.121094 C 216.875 290.425781 217.355469 291.722656 217.835938 293.019531 C 218.882812 295.976562 220.097656 298.878906 220.429688 299.207031 C 220.570312 299.371094 220.683594 299.648438 220.6875 299.871094 C 220.6875 300.203125 221.730469 302.46875 222.375 303.515625 C 222.515625 303.734375 223.023438 304.867188 223.53125 306 C 224.039062 307.132812 224.796875 308.816406 225.222656 309.726562 C 225.644531 310.636719 226.265625 312.183594 226.605469 313.179688 C 227.425781 315.585938 228.804688 318.457031 229.277344 318.8125 C 229.503906 318.976562 230.007812 320.027344 230.40625 321.128906 C 230.800781 322.261719 231.644531 323.949219 232.234375 324.886719 C 232.851562 325.851562 233.355469 326.734375 233.359375 326.898438 C 233.359375 327.039062 233.808594 327.863281 234.339844 328.746094 C 234.875 329.628906 235.324219 330.484375 235.324219 330.652344 C 235.328125 330.789062 236.308594 332.335938 237.511719 334.070312 C 238.6875 335.808594 239.808594 337.433594 239.949219 337.683594 C 243.0625 342.5625 246.75 346.773438 248.890625 347.78125 C 249.503906 348.082031 250.058594 348.410156 250.140625 348.492188 C 250.226562 348.601562 250.753906 348.902344 251.3125 349.175781 C 251.894531 349.476562 253.144531 350.074219 254.089844 350.539062 C 255.671875 351.328125 259.269531 352.546875 259.945312 352.546875 L 259.953125 352.546875 C 260.175781 352.546875 265.734375 355.214844 268.375 356.582031 C 268.652344 356.71875 269.457031 357.070312 270.152344 357.34375 C 272.707031 358.320312 273.933594 358.894531 275.019531 359.632812 C 276.964844 360.949219 279.246094 362.371094 279.414062 362.371094 C 279.609375 362.371094 280.863281 363.191406 283.0625 364.808594 C 283.980469 365.464844 285.375 366.398438 286.179688 366.863281 C 286.988281 367.328125 288.40625 368.285156 289.328125 369 C 290.273438 369.738281 291.082031 370.316406 291.136719 370.316406 C 291.191406 370.316406 292.972656 371.464844 295.117188 372.859375 C 297.234375 374.230469 299.652344 375.679688 300.488281 376.0625 C 301.320312 376.441406 302.269531 377.015625 302.574219 377.347656 C 302.882812 377.675781 304.023438 378.390625 305.082031 378.960938 C 306.164062 379.507812 307.414062 380.164062 307.859375 380.4375 C 308.335938 380.710938 309.027344 380.984375 309.445312 381.089844 C 309.832031 381.171875 311.390625 382.046875 312.894531 383.03125 C 314.398438 384.015625 315.703125 384.808594 315.789062 384.808594 C 315.902344 384.808594 316.902344 385.496094 318.042969 386.316406 C 319.1875 387.136719 321.273438 388.398438 322.691406 389.105469 C 324.5 390.007812 325.5 390.664062 325.949219 391.296875 C 326.285156 391.820312 327.734375 393.195312 329.183594 394.347656 C 330.632812 395.527344 332.390625 397.039062 333.089844 397.726562 C 336.183594 400.640625 338 402.261719 338.609375 402.644531 C 339.5 403.21875 345.667969 409.238281 348.015625 411.851562 C 350.167969 414.246094 350.785156 415.210938 351.070312 416.734375 L 351.273438 417.730469 L 350.054688 417.488281 C 349.261719 417.347656 348.53125 417.273438 347.914062 417.273438 C 347.042969 417.273438 346.394531 417.417969 346.121094 417.714844 C 345.875 417.9375 345.601562 418.632812 345.523438 419.214844 L 345.367188 420.269531 L 344.339844 419.917969 C 343.78125 419.726562 342.921875 419.347656 342.394531 419.074219 C 341.984375 418.867188 341.59375 418.78125 341.25 418.78125 C 340.03125 418.78125 339.386719 419.90625 340.496094 421 C 340.859375 421.355469 341.777344 421.875 342.527344 422.148438 C 343.304688 422.417969 344.109375 422.800781 344.335938 422.964844 C 344.976562 423.457031 347.5 423.910156 349.6875 423.921875 C 349.734375 423.921875 349.78125 423.921875 349.828125 423.921875 C 351.203125 423.921875 351.925781 424.082031 352.515625 424.453125 C 352.988281 424.726562 353.546875 425.054688 353.769531 425.136719 C 357.574219 426.6875 357.6875 426.796875 358.648438 429.421875 C 358.902344 430.140625 359.71875 431.738281 360.503906 432.980469 C 361.261719 434.222656 361.878906 435.296875 361.878906 435.382812 C 361.878906 435.464844 362.332031 436.429688 362.867188 437.535156 C 363.398438 438.636719 363.851562 439.742188 363.855469 439.992188 C 363.859375 440.546875 365.625 443.46875 366.238281 443.992188 C 366.628906 444.320312 368.34375 447.550781 368.347656 447.992188 C 368.347656 448.078125 368.6875 448.878906 369.082031 449.734375 C 370.347656 452.4375 371.449219 455.089844 372.328125 457.660156 C 372.808594 459.015625 373.289062 460.394531 373.429688 460.699219 C 375.179688 464.730469 376.382812 466.605469 378.449219 468.417969 C 379.144531 469.023438 379.980469 469.765625 380.34375 470.09375 C 380.890625 470.59375 382.109375 470.867188 383.625 470.867188 C 384.195312 470.867188 384.808594 470.828125 385.445312 470.75 C 387.769531 470.453125 390.441406 468.714844 392.859375 465.925781 C 394.835938 463.636719 395.683594 462.109375 396.027344 460.191406 C 396.132812 459.609375 396.378906 458.886719 396.570312 458.582031 C 396.816406 458.246094 396.945312 457.25 396.9375 455.835938 C 396.921875 454.0625 397.027344 453.507812 397.441406 453.0625 C 398.484375 451.863281 398.878906 448.976562 398.226562 447.125 C 398 446.460938 398.023438 445.992188 398.375 444.9375 C 398.917969 443.324219 398.738281 441.96875 397.785156 440.035156 C 397.363281 439.152344 397.191406 438.515625 397.328125 438.238281 C 397.871094 437.179688 397.914062 435.492188 397.464844 434.441406 C 397.183594 433.835938 396.867188 432.339844 396.746094 431.066406 C 396.597656 429.792969 396.339844 428.578125 396.140625 428.328125 C 395.890625 428.054688 395.714844 426.863281 395.648438 425.089844 C 395.578125 423.566406 395.402344 422.015625 395.234375 421.65625 C 394.980469 421.1875 394.976562 420.800781 395.21875 420.105469 C 395.628906 418.941406 395.597656 414.921875 395.171875 413.984375 C 394.917969 413.429688 394.914062 412.878906 395.183594 411.515625 C 395.449219 410.074219 395.441406 409.269531 395.0625 406.613281 C 394.300781 401.496094 394.128906 400.804688 393.058594 398.566406 C 391.316406 394.976562 390.371094 394.429688 384.546875 393.699219 C 381.773438 393.332031 379.164062 392.605469 377.054688 391.597656 C 375.605469 390.914062 375.21875 390.863281 370.261719 390.707031 C 361.257812 390.472656 359.785156 390.121094 357.496094 387.757812 C 355.484375 385.667969 354.316406 384.679688 353.257812 384.160156 C 352.839844 383.941406 351.671875 382.871094 350.691406 381.796875 C 349.714844 380.726562 348.769531 379.847656 348.574219 379.847656 L 348.570312 379.847656 C 348.402344 379.847656 347.902344 379.492188 347.457031 379.023438 C 347.039062 378.585938 346.261719 378.089844 345.761719 377.929688 C 345.121094 377.710938 344.507812 377.105469 343.554688 375.730469 C 342.042969 373.46875 341.09375 372.507812 338.585938 370.640625 C 337.582031 369.875 336.746094 369.132812 336.746094 368.992188 C 336.714844 368.550781 334.113281 365.273438 332.886719 364.148438 C 332.300781 363.597656 330.875 362.167969 329.730469 360.984375 C 328.585938 359.800781 327.273438 358.539062 326.800781 358.152344 C 325.074219 356.726562 321.023438 352.433594 320.128906 351.113281 C 319.59375 350.339844 318.449219 349.046875 317.554688 348.195312 C 316.636719 347.34375 315.433594 345.992188 314.847656 345.140625 C 313.304688 342.960938 310.265625 340.023438 308.789062 339.285156 C 308.097656 338.957031 306.589844 337.832031 305.476562 336.84375 C 304.332031 335.828125 302.578125 334.621094 301.578125 334.132812 C 300.578125 333.640625 299.628906 333.121094 299.464844 332.929688 C 299.324219 332.734375 298.015625 332.109375 296.628906 331.507812 C 295.210938 330.9375 293.707031 330.203125 293.292969 329.929688 C 292.847656 329.65625 291.707031 329.027344 290.703125 328.535156 C 288.648438 327.527344 287.449219 326.84375 285.808594 325.71875 C 285.167969 325.28125 284.054688 324.816406 283.335938 324.65625 C 282.585938 324.496094 281.558594 324.035156 281 323.59375 C 279.691406 322.605469 279.105469 322.308594 277.886719 322.09375 C 276.582031 321.882812 274.550781 320.570312 273.710938 319.4375 C 273.011719 318.476562 272.609375 316.398438 272.011719 311.03125 C 271.863281 309.644531 271.601562 308.09375 271.460938 307.570312 C 271.316406 307.042969 271.117188 306.050781 271 305.355469 C 270.910156 304.664062 270.652344 303.558594 270.425781 302.867188 C 270.226562 302.175781 269.960938 299.878906 269.832031 297.746094 C 269.441406 290.128906 269.019531 285.726562 268.625 284.761719 C 268.398438 284.238281 268.195312 283.128906 268.191406 282.324219 C 268.183594 281.523438 268.035156 280.359375 267.867188 279.75 C 267.722656 279.144531 267.40625 277.648438 267.203125 276.433594 C 266.972656 275.214844 266.597656 273.332031 266.3125 272.28125 C 266.054688 271.203125 265.683594 269.65625 265.484375 268.824219 C 265.226562 267.773438 265.125 265.667969 265.152344 262.066406 C 265.175781 257.910156 265.113281 256.664062 264.773438 256.058594 C 264.214844 254.953125 264.070312 239.882812 264.648438 239.65625 C 264.925781 239.542969 265.054688 238.601562 265.175781 236.214844 C 265.464844 230.699219 265.515625 230.0625 265.945312 224.378906 C 266.316406 219.027344 266.308594 217.53125 265.695312 213.546875 C 265.285156 210.863281 264.03125 205.941406 263.554688 205.195312 C 263.328125 204.867188 263.15625 204.230469 263.152344 203.785156 C 263.144531 202.707031 261.648438 198.753906 260.382812 196.574219 C 259.765625 195.445312 258.285156 193.65625 256.5 191.867188 C 253.902344 189.226562 253.457031 188.898438 251.621094 188.191406 L 249.59375 187.433594 L 247.800781 184.425781 C 245.976562 181.363281 245.332031 180.675781 242.6875 178.953125 C 241.882812 178.433594 240.320312 177.113281 239.203125 176.042969 C 238.085938 174.96875 236.664062 173.761719 235.996094 173.324219 C 235.328125 172.914062 234.492188 172.308594 234.105469 172.035156 C 233.714844 171.761719 232.933594 171.296875 232.378906 171.050781 C 231.015625 170.398438 229.09375 168.832031 229.089844 168.363281 C 229.089844 168.140625 228.976562 167.753906 228.804688 167.476562 C 228.160156 166.347656 225.992188 161.542969 225.988281 161.238281 C 225.988281 161.070312 225.789062 160.628906 225.539062 160.296875 C 225.3125 159.96875 224.722656 158.613281 224.269531 157.289062 C 223.191406 154.277344 221.984375 151.738281 221.199219 150.9375 C 220.167969 149.839844 218.523438 144.726562 218.21875 141.597656 C 218.128906 140.515625 217.867188 138.910156 217.640625 138 C 217.410156 137.085938 217.152344 135.898438 217.066406 135.371094 C 216.949219 134.847656 216.636719 133.738281 216.324219 132.9375 C 216.042969 132.136719 215.785156 131.140625 215.78125 130.726562 C 215.78125 130.3125 215.605469 129.425781 215.378906 128.734375 C 214.5 125.972656 214.097656 124.367188 213.921875 122.925781 C 213.832031 122.097656 213.574219 121.019531 213.351562 120.578125 C 212.503906 118.78125 211.992188 116.902344 211.867188 115.046875 C 211.777344 113.964844 211.601562 112.941406 211.433594 112.75 C 211.210938 112.503906 211.347656 112.417969 212.011719 112.414062 C 212.484375 112.410156 212.871094 112.296875 212.871094 112.183594 C 212.867188 112.046875 213.058594 111.710938 213.28125 111.40625 C 213.386719 111.261719 213.464844 111.175781 213.519531 111.175781 C 213.648438 111.175781 213.652344 111.632812 213.625 112.925781 C 213.582031 114.683594 213.730469 115.40625 214.410156 115.40625 C 214.738281 115.40625 215.1875 115.234375 215.800781 114.933594 C 217.234375 114.230469 218.136719 112.921875 218.128906 111.589844 C 218.125 111.050781 218.148438 110.835938 218.304688 110.835938 C 218.382812 110.835938 218.496094 110.886719 218.648438 110.976562 C 218.984375 111.148438 219.335938 111.230469 219.667969 111.230469 C 220.132812 111.230469 220.550781 111.0625 220.808594 110.738281 C 221.742188 109.566406 222.308594 107.902344 222.164062 106.875 C 221.8125 104.636719 221.585938 103.859375 221.109375 103.339844 C 220.832031 103.035156 220.519531 102.179688 220.402344 101.402344 C 220.226562 100.132812 219.972656 99.496094 218.507812 96.402344 C 218.226562 95.769531 217.25 94.640625 216.328125 93.84375 C 215.410156 93.046875 214.65625 92.25 214.652344 92.027344 C 214.652344 91.832031 214.34375 91.476562 213.957031 91.230469 C 213.035156 90.628906 213.0625 90.265625 214.082031 89.925781 C 214.71875 89.671875 214.910156 89.449219 214.90625 88.894531 C 214.902344 88.480469 214.703125 87.898438 214.480469 87.625 C 214.257812 87.320312 214.058594 86.65625 214.054688 86.160156 C 214.050781 85.660156 213.9375 85.246094 213.800781 85.246094 L 213.796875 85.246094 C 213.660156 85.246094 213.15625 84.613281 212.652344 83.871094 C 212.121094 83.070312 211.5625 82.496094 211.257812 82.496094 C 211.253906 82.496094 211.253906 82.496094 211.253906 82.496094 C 210.949219 82.496094 210.617188 82.109375 210.335938 81.449219 C 209.910156 80.425781 209.910156 80.425781 210.601562 80.339844 C 210.960938 80.28125 211.320312 80.082031 211.402344 79.863281 C 211.648438 79.222656 215.601562 78.386719 219.671875 78.136719 C 221.359375 78.039062 223.40625 77.828125 224.238281 77.683594 C 225.066406 77.511719 227.199219 77.273438 228.941406 77.09375 C 230.683594 76.941406 233.425781 76.535156 235.027344 76.214844 C 239.371094 75.351562 242.71875 74.742188 244.460938 74.480469 C 245.289062 74.363281 246.230469 74.136719 246.535156 73.992188 C 246.808594 73.824219 247.777344 73.625 248.664062 73.507812 C 249.519531 73.417969 250.765625 73.101562 251.398438 72.847656 C 252.3125 72.480469 253.582031 72.359375 257.960938 72.328125 L 263.386719 72.257812 L 266.859375 73.449219 C 270.664062 74.722656 271.71875 75.183594 272.554688 75.925781 C 272.863281 76.203125 274.003906 76.746094 275.058594 77.125 C 276.140625 77.535156 277.421875 78.050781 277.921875 78.269531 C 278.417969 78.457031 278.972656 78.648438 279.167969 78.648438 C 279.363281 78.671875 280.003906 78.890625 280.613281 79.191406 C 281.226562 79.488281 281.863281 79.707031 282.03125 79.734375 C 282.199219 79.734375 282.726562 79.921875 283.199219 80.167969 C 284.695312 80.875 292.464844 82.96875 293.679688 82.96875 C 293.683594 82.96875 293.6875 82.96875 293.6875 82.96875 C 293.691406 82.96875 293.691406 82.96875 293.691406 82.96875 C 294.003906 82.96875 295.191406 83.207031 296.324219 83.5 C 297.449219 83.792969 298.976562 84.03125 299.734375 84.03125 C 299.746094 84.03125 299.753906 84.03125 299.761719 84.03125 C 299.785156 84.03125 299.804688 84.03125 299.824219 84.03125 C 300.578125 84.03125 301.292969 84.132812 301.453125 84.292969 C 301.816406 84.652344 305.339844 85.566406 308.226562 86.042969 C 309.53125 86.253906 311.277344 86.601562 312.109375 86.816406 C 312.941406 87.03125 314.382812 87.324219 315.300781 87.457031 C 316.214844 87.617188 317.464844 87.855469 318.074219 88.015625 C 318.675781 88.175781 319.597656 88.304688 320.15625 88.304688 C 320.164062 88.304688 320.171875 88.304688 320.179688 88.304688 C 320.1875 88.304688 320.191406 88.304688 320.195312 88.304688 C 321.085938 88.304688 322.632812 88.929688 324.375 90.046875 C 324.738281 90.265625 325.90625 90.753906 326.960938 91.164062 C 328.042969 91.570312 329.40625 92.113281 330.015625 92.386719 C 330.628906 92.65625 331.269531 92.929688 331.40625 92.957031 C 332.933594 93.5 336.164062 95.664062 337.058594 96.710938 C 338.316406 98.25 339.234375 98.992188 340.902344 99.753906 C 341.210938 99.890625 342.65625 100.546875 344.101562 101.226562 C 345.546875 101.878906 347.074219 102.5625 347.492188 102.726562 C 347.972656 102.925781 348.683594 103.023438 349.328125 103.023438 C 349.910156 103.023438 350.441406 102.941406 350.703125 102.78125 C 350.785156 102.730469 350.902344 102.703125 351.035156 102.703125 C 351.257812 102.703125 351.535156 102.777344 351.8125 102.914062 C 352.203125 103.105469 353.949219 103.367188 355.667969 103.519531 C 357.664062 103.671875 359.050781 103.910156 359.46875 104.183594 C 359.875 104.453125 360.710938 104.609375 361.578125 104.609375 C 361.59375 104.609375 361.613281 104.609375 361.632812 104.609375 C 363.210938 104.597656 363.789062 104.234375 364.140625 102.984375 C 364.273438 102.589844 364.457031 102.402344 364.820312 102.402344 C 365.121094 102.402344 365.542969 102.527344 366.160156 102.773438 C 366.675781 102.988281 367.859375 103.167969 368.820312 103.167969 C 368.839844 103.167969 368.859375 103.167969 368.878906 103.167969 C 370.402344 103.15625 370.730469 103.042969 371.832031 102.175781 C 373.761719 100.695312 374.351562 98.058594 373.066406 96.679688 C 372.453125 96.050781 369.933594 94.855469 369.179688 94.855469 C 369.175781 94.855469 369.175781 94.855469 369.171875 94.855469 C 368.972656 94.855469 368.339844 94.722656 367.785156 94.5625 C 366.648438 94.265625 366.421875 93.710938 367.136719 92.765625 C 367.765625 91.902344 367.664062 89.269531 366.933594 88.386719 C 366.460938 87.78125 366.375 87.421875 366.503906 86.535156 C 366.742188 85.039062 366.230469 83.40625 365.367188 82.71875 L 364.671875 82.171875 L 365.355469 81.113281 C 366.066406 80.082031 366.300781 78.113281 365.878906 77.007812 C 365.359375 75.71875 360.96875 74.734375 356.96875 74.734375 C 355.746094 74.734375 354.5625 74.824219 353.539062 75.027344 C 352.707031 75.199219 350.050781 75.578125 347.617188 75.902344 L 343.191406 76.4375 L 341.246094 75.675781 C 340.1875 75.265625 338.855469 74.835938 338.328125 74.726562 C 337.082031 74.488281 334.722656 73.730469 332.777344 72.96875 C 329.5 71.691406 323.359375 69.660156 321.167969 69.152344 C 319.894531 68.882812 317.949219 68.207031 316.863281 67.6875 C 314.25 66.460938 310.472656 65.050781 307.226562 64.050781 C 305.78125 63.617188 303.726562 62.941406 302.671875 62.5625 C 301.625 62.183594 300.277344 61.863281 299.6875 61.863281 C 299.683594 61.863281 299.679688 61.863281 299.675781 61.863281 C 299.667969 61.863281 299.660156 61.863281 299.652344 61.863281 C 298.265625 61.863281 296.234375 60.972656 296.035156 60.257812 C 295.890625 59.648438 293.777344 58.5 291.945312 58.074219 C 291.253906 57.882812 290.085938 57.449219 289.308594 57.09375 C 288 56.46875 286.558594 56.035156 283.058594 55.175781 C 281.0625 54.691406 279.425781 54.234375 275.566406 53.074219 C 273.816406 52.53125 271.289062 51.859375 269.929688 51.566406 C 268.601562 51.269531 266.683594 50.648438 265.628906 50.210938 C 263.796875 49.386719 259.636719 48.683594 257.15625 48.683594 C 256.773438 48.683594 256.433594 48.699219 256.144531 48.734375 C 253.753906 49.070312 245.527344 49.386719 241.058594 49.386719 C 239.683594 49.386719 238.664062 49.355469 238.28125 49.285156 C 234.5 48.65625 232.246094 48.511719 223.4375 48.511719 C 222.234375 48.511719 220.910156 48.511719 219.441406 48.519531 C 216.453125 48.535156 214.09375 48.558594 212.222656 48.558594 C 204.578125 48.558594 205.125 48.199219 204.4375 45.78125 C 204.011719 44.257812 203.671875 43.652344 202.554688 42.523438 C 201.804688 41.78125 200.992188 40.847656 200.742188 40.488281 C 200.488281 40.128906 199.957031 39.691406 199.570312 39.527344 C 198.234375 38.957031 196.871094 37.886719 196.394531 37.058594 C 196.054688 36.507812 195.738281 34.957031 195.472656 32.742188 C 194.703125 26.15625 193.960938 23.527344 192.167969 20.769531 C 191.636719 19.972656 190.933594 18.59375 190.566406 17.679688 C 189.71875 15.554688 188.148438 13.015625 187.339844 12.386719 C 186.976562 12.109375 186.390625 11.394531 186 10.789062 C 185.296875 9.6875 184.269531 9.085938 179.515625 6.933594 C 177.921875 6.21875 175.558594 5.863281 173.289062 5.863281 C 170.886719 5.863281 168.589844 6.261719 167.410156 7.050781 C 166.832031 7.445312 166.171875 7.753906 165.921875 7.757812 C 165.671875 7.757812 164.84375 8.125 164.101562 8.601562 C 163.382812 9.050781 162.722656 9.445312 162.636719 9.445312 C 162.332031 9.445312 161.464844 8.34375 160.847656 7.132812 C 159.921875 5.363281 159.25 4.789062 157.308594 4.082031 C 156.417969 3.757812 155.167969 3.15625 154.582031 2.746094 C 154 2.363281 153.359375 2.035156 153.191406 2.035156 C 152.996094 2.035156 151.996094 1.574219 150.941406 1.027344 L 148.996094 0.0195312 L 144.148438 0 C 143.761719 -0.00390625 143.398438 -0.00390625 143.050781 -0.00390625 Z M 143.050781 -0.00390625 " fill-opacity="1" fill-rule="nonzero"/></g></svg>