<svg xmlns="http://www.w3.org/2000/svg" xmlns:xlink="http://www.w3.org/1999/xlink" width="242" zoomAndPan="magnify" viewBox="0 0 181.5 47.25" height="63" preserveAspectRatio="xMidYMid meet" version="1.0"><defs><g/><clipPath id="7f3c69547b"><path d="M 9 27 L 19 27 L 19 35 L 9 35 Z M 9 27 " clip-rule="nonzero"/></clipPath><clipPath id="3e43147fe2"><path d="M 1.171875 22.300781 L 19.71875 0.277344 L 36.09375 14.066406 L 17.550781 36.089844 Z M 1.171875 22.300781 " clip-rule="nonzero"/></clipPath><clipPath id="8b74f752bc"><path d="M 1.171875 22.300781 L 19.71875 0.277344 L 36.09375 14.066406 L 17.550781 36.089844 Z M 1.171875 22.300781 " clip-rule="nonzero"/></clipPath><clipPath id="f18105e7da"><path d="M 17 15 L 27 15 L 27 26 L 17 26 Z M 17 15 " clip-rule="nonzero"/></clipPath><clipPath id="19612a08ae"><path d="M 1.171875 22.300781 L 19.71875 0.277344 L 36.09375 14.066406 L 17.550781 36.089844 Z M 1.171875 22.300781 " clip-rule="nonzero"/></clipPath><clipPath id="afd1c34e21"><path d="M 1.171875 22.300781 L 19.71875 0.277344 L 36.09375 14.066406 L 17.550781 36.089844 Z M 1.171875 22.300781 " clip-rule="nonzero"/></clipPath><clipPath id="37ca6f4ecd"><path d="M 26 7 L 35 7 L 35 15 L 26 15 Z M 26 7 " clip-rule="nonzero"/></clipPath><clipPath id="aee8de67cf"><path d="M 1.171875 22.300781 L 19.71875 0.277344 L 36.09375 14.066406 L 17.550781 36.089844 Z M 1.171875 22.300781 " clip-rule="nonzero"/></clipPath><clipPath id="61f271dd7f"><path d="M 1.171875 22.300781 L 19.71875 0.277344 L 36.09375 14.066406 L 17.550781 36.089844 Z M 1.171875 22.300781 " clip-rule="nonzero"/></clipPath><clipPath id="59ab808e34"><path d="M 10 21 L 23 21 L 23 33 L 10 33 Z M 10 21 " clip-rule="nonzero"/></clipPath><clipPath id="1ecf0afdac"><path d="M 1.171875 22.300781 L 19.71875 0.277344 L 36.09375 14.066406 L 17.550781 36.089844 Z M 1.171875 22.300781 " clip-rule="nonzero"/></clipPath><clipPath id="e88d015a42"><path d="M 1.171875 22.300781 L 19.71875 0.277344 L 36.09375 14.066406 L 17.550781 36.089844 Z M 1.171875 22.300781 " clip-rule="nonzero"/></clipPath><clipPath id="71b01ed60e"><path d="M 20 8 L 34 8 L 34 21 L 20 21 Z M 20 8 " clip-rule="nonzero"/></clipPath><clipPath id="62b8623f86"><path d="M 1.171875 22.300781 L 19.71875 0.277344 L 36.09375 14.066406 L 17.550781 36.089844 Z M 1.171875 22.300781 " clip-rule="nonzero"/></clipPath><clipPath id="dbdc15b4db"><path d="M 1.171875 22.300781 L 19.71875 0.277344 L 36.09375 14.066406 L 17.550781 36.089844 Z M 1.171875 22.300781 " clip-rule="nonzero"/></clipPath></defs><g clip-path="url(#7f3c69547b)"><g clip-path="url(#3e43147fe2)"><g clip-path="url(#8b74f752bc)"><path fill="#ffffff" d="M 11.347656 27.058594 L 10.09375 28.542969 C 9.46875 29.289062 9.957031 29.695312 10.214844 29.914062 L 15.417969 34.292969 C 15.671875 34.511719 16.160156 34.917969 16.785156 34.175781 L 18.035156 32.691406 Z M 11.347656 27.058594 " fill-opacity="1" fill-rule="nonzero"/></g></g></g><g clip-path="url(#f18105e7da)"><g clip-path="url(#19612a08ae)"><g clip-path="url(#afd1c34e21)"><path fill="#ffffff" d="M 17.214844 23.105469 L 23.472656 15.671875 L 26.445312 18.175781 L 20.1875 25.609375 Z M 17.214844 23.105469 " fill-opacity="1" fill-rule="nonzero"/></g></g></g><g clip-path="url(#37ca6f4ecd)"><g clip-path="url(#aee8de67cf)"><g clip-path="url(#61f271dd7f)"><path fill="#ffffff" d="M 27.621094 7.730469 L 26.367188 9.21875 L 33.058594 14.851562 L 34.308594 13.363281 C 34.933594 12.621094 34.449219 12.210938 34.191406 11.996094 L 28.988281 7.613281 C 28.730469 7.398438 28.246094 6.988281 27.621094 7.730469 Z M 27.621094 7.730469 " fill-opacity="1" fill-rule="nonzero"/></g></g></g><g clip-path="url(#59ab808e34)"><g clip-path="url(#1ecf0afdac)"><g clip-path="url(#e88d015a42)"><path fill="#ffffff" d="M 16.773438 24.003906 L 13.617188 21.347656 C 13.359375 21.128906 12.871094 20.71875 12.246094 21.464844 L 10.371094 23.691406 C 9.742188 24.4375 10.230469 24.847656 10.488281 25.0625 L 19.40625 32.574219 C 19.664062 32.789062 20.148438 33.199219 20.773438 32.457031 L 22.652344 30.226562 C 23.277344 29.480469 22.792969 29.074219 22.535156 28.855469 Z M 16.773438 24.003906 " fill-opacity="1" fill-rule="nonzero"/></g></g></g><g clip-path="url(#71b01ed60e)"><g clip-path="url(#62b8623f86)"><g clip-path="url(#dbdc15b4db)"><path fill="#ffffff" d="M 32.058594 15.28125 L 24.253906 8.710938 C 24 8.492188 23.511719 8.085938 22.886719 8.828125 L 20.957031 11.117188 C 20.382812 11.800781 20.867188 12.210938 21.125 12.425781 L 30.046875 19.9375 C 30.304688 20.152344 30.789062 20.5625 31.363281 19.878906 L 33.292969 17.589844 C 33.917969 16.847656 33.433594 16.4375 33.175781 16.21875 Z M 32.058594 15.28125 " fill-opacity="1" fill-rule="nonzero"/></g></g></g><g fill="#006daa" fill-opacity="1"><g transform="translate(48.38095, 31.048998)"><g><path d="M 15.71875 -12.875 L 15.71875 0 L 12.578125 0 L 12.578125 -7.71875 L 9.703125 0 L 7.171875 0 L 4.28125 -7.734375 L 4.28125 0 L 1.140625 0 L 1.140625 -12.875 L 4.84375 -12.875 L 8.453125 -3.96875 L 12.03125 -12.875 Z M 15.71875 -12.875 "/></g></g></g><g fill="#006daa" fill-opacity="1"><g transform="translate(65.218568, 31.048998)"><g><path d="M 7.234375 0.125 C 6.015625 0.125 4.898438 -0.15625 3.890625 -0.71875 C 2.890625 -1.28125 2.09375 -2.0625 1.5 -3.0625 C 0.90625 -4.070312 0.609375 -5.207031 0.609375 -6.46875 C 0.609375 -7.726562 0.90625 -8.859375 1.5 -9.859375 C 2.09375 -10.867188 2.890625 -11.65625 3.890625 -12.21875 C 4.898438 -12.78125 6.015625 -13.0625 7.234375 -13.0625 C 8.441406 -13.0625 9.546875 -12.78125 10.546875 -12.21875 C 11.554688 -11.65625 12.351562 -10.867188 12.9375 -9.859375 C 13.519531 -8.859375 13.8125 -7.726562 13.8125 -6.46875 C 13.8125 -5.207031 13.515625 -4.070312 12.921875 -3.0625 C 12.335938 -2.0625 11.546875 -1.28125 10.546875 -0.71875 C 9.546875 -0.15625 8.441406 0.125 7.234375 0.125 Z M 7.234375 -2.734375 C 8.253906 -2.734375 9.070312 -3.070312 9.6875 -3.75 C 10.3125 -4.4375 10.625 -5.34375 10.625 -6.46875 C 10.625 -7.613281 10.3125 -8.523438 9.6875 -9.203125 C 9.070312 -9.878906 8.253906 -10.21875 7.234375 -10.21875 C 6.191406 -10.21875 5.359375 -9.878906 4.734375 -9.203125 C 4.117188 -8.535156 3.8125 -7.625 3.8125 -6.46875 C 3.8125 -5.332031 4.117188 -4.425781 4.734375 -3.75 C 5.359375 -3.070312 6.191406 -2.734375 7.234375 -2.734375 Z M 7.234375 -2.734375 "/></g></g></g><g fill="#006daa" fill-opacity="1"><g transform="translate(79.63509, 31.048998)"><g><path d="M 15.71875 -12.875 L 15.71875 0 L 12.578125 0 L 12.578125 -7.71875 L 9.703125 0 L 7.171875 0 L 4.28125 -7.734375 L 4.28125 0 L 1.140625 0 L 1.140625 -12.875 L 4.84375 -12.875 L 8.453125 -3.96875 L 12.03125 -12.875 Z M 15.71875 -12.875 "/></g></g></g><g fill="#006daa" fill-opacity="1"><g transform="translate(96.472708, 31.048998)"><g><path d="M 4.28125 -10.359375 L 4.28125 -7.765625 L 8.46875 -7.765625 L 8.46875 -5.34375 L 4.28125 -5.34375 L 4.28125 -2.515625 L 9.03125 -2.515625 L 9.03125 0 L 1.140625 0 L 1.140625 -12.875 L 9.03125 -12.875 L 9.03125 -10.359375 Z M 4.28125 -10.359375 "/></g></g></g><g fill="#006daa" fill-opacity="1"><g transform="translate(106.395533, 31.048998)"><g><path d="M 12.65625 0 L 9.515625 0 L 4.28125 -7.9375 L 4.28125 0 L 1.140625 0 L 1.140625 -12.875 L 4.28125 -12.875 L 9.515625 -4.890625 L 9.515625 -12.875 L 12.65625 -12.875 Z M 12.65625 0 "/></g></g></g><g fill="#006daa" fill-opacity="1"><g transform="translate(120.18844, 31.048998)"><g><path d="M 10.40625 -12.875 L 10.40625 -10.359375 L 6.984375 -10.359375 L 6.984375 0 L 3.859375 0 L 3.859375 -10.359375 L 0.4375 -10.359375 L 0.4375 -12.875 Z M 10.40625 -12.875 "/></g></g></g><g fill="#006daa" fill-opacity="1"><g transform="translate(131.028349, 31.048998)"><g><path d="M 4.21875 -12.875 L 4.21875 -5.171875 C 4.21875 -4.398438 4.40625 -3.804688 4.78125 -3.390625 C 5.164062 -2.972656 5.722656 -2.765625 6.453125 -2.765625 C 7.191406 -2.765625 7.753906 -2.972656 8.140625 -3.390625 C 8.535156 -3.804688 8.734375 -4.398438 8.734375 -5.171875 L 8.734375 -12.875 L 11.875 -12.875 L 11.875 -5.1875 C 11.875 -4.039062 11.628906 -3.066406 11.140625 -2.265625 C 10.648438 -1.472656 9.988281 -0.875 9.15625 -0.46875 C 8.332031 -0.0703125 7.414062 0.125 6.40625 0.125 C 5.382812 0.125 4.472656 -0.0703125 3.671875 -0.46875 C 2.867188 -0.863281 2.234375 -1.460938 1.765625 -2.265625 C 1.304688 -3.066406 1.078125 -4.039062 1.078125 -5.1875 L 1.078125 -12.875 Z M 4.21875 -12.875 "/></g></g></g><g fill="#006daa" fill-opacity="1"><g transform="translate(143.959198, 31.048998)"><g><path d="M 15.71875 -12.875 L 15.71875 0 L 12.578125 0 L 12.578125 -7.71875 L 9.703125 0 L 7.171875 0 L 4.28125 -7.734375 L 4.28125 0 L 1.140625 0 L 1.140625 -12.875 L 4.84375 -12.875 L 8.453125 -3.96875 L 12.03125 -12.875 Z M 15.71875 -12.875 "/></g></g></g></svg>